<?xml version="1.0" encoding="UTF-8" standalone="no"?>
<!DOCTYPE svg PUBLIC "-//W3C//DTD SVG 1.1//EN"
 "http://www.w3.org/Graphics/SVG/1.1/DTD/svg11.dtd">
<!-- Generated by graphviz version 12.2.1 (20241206.2353)
 -->
<!-- Title: satelliten Pages: 1 -->
<svg width="961pt" height="669pt"
 viewBox="0.00 0.00 960.64 669.07" xmlns="http://www.w3.org/2000/svg" xmlns:xlink="http://www.w3.org/1999/xlink">
<g id="graph0" class="graph" transform="scale(1 1) rotate(0) translate(4 665.07)">
<title>satelliten</title>
<polygon fill="white" stroke="none" points="-4,4 -4,-665.07 956.64,-665.07 956.64,4 -4,4"/>
<!-- Zentrum -->
<g id="node1" class="node">
<title>Zentrum</title>
<ellipse fill="#00bfff" stroke="black" cx="504.63" cy="-326.57" rx="108" ry="108"/>
<text text-anchor="middle" x="504.63" y="-318.82" font-family="Times,serif" font-weight="bold" font-size="20.00">Global Governance</text>
</g>
<!-- A -->
<g id="node2" class="node">
<title>A</title>
<ellipse fill="#00ffff" stroke="black" cx="847.04" cy="-326.57" rx="105.6" ry="18"/>
<text text-anchor="middle" x="847.04" y="-321.52" font-family="Times New Roman,serif" font-size="14.00">Regieren ohne Regierung</text>
</g>
<!-- A&#45;&gt;Zentrum -->
<g id="edge1" class="edge">
<title>A&#45;&gt;Zentrum</title>
<path fill="none" stroke="black" d="M741.04,-326.57C704.04,-326.57 662.25,-326.57 624.22,-326.57"/>
<polygon fill="black" stroke="black" points="624.59,-323.07 614.59,-326.57 624.59,-330.07 624.59,-323.07"/>
</g>
<!-- B -->
<g id="node3" class="node">
<title>B</title>
<ellipse fill="#00ffff" stroke="black" cx="691.82" cy="-613.28" rx="78.99" ry="18"/>
<text text-anchor="middle" x="691.82" y="-608.23" font-family="Times New Roman,serif" font-size="14.00">Staatliche Akteure</text>
</g>
<!-- B&#45;&gt;Zentrum -->
<g id="edge2" class="edge">
<title>B&#45;&gt;Zentrum</title>
<path fill="none" stroke="black" d="M680.11,-595.35C658.37,-562.06 610.33,-488.47 570,-426.7"/>
<polygon fill="black" stroke="black" points="573.08,-425.01 564.68,-418.55 567.22,-428.84 573.08,-425.01"/>
</g>
<!-- C -->
<g id="node4" class="node">
<title>C</title>
<ellipse fill="#00ffff" stroke="black" cx="373.95" cy="-643.07" rx="97.93" ry="18"/>
<text text-anchor="middle" x="373.95" y="-638.02" font-family="Times New Roman,serif" font-size="14.00">Nichtstaatliche Akteure</text>
</g>
<!-- C&#45;&gt;Zentrum -->
<g id="edge3" class="edge">
<title>C&#45;&gt;Zentrum</title>
<path fill="none" stroke="black" d="M381.54,-624.68C396.41,-588.67 430.41,-506.31 458.92,-437.27"/>
<polygon fill="black" stroke="black" points="462.1,-438.72 462.69,-428.14 455.63,-436.05 462.1,-438.72"/>
</g>
<!-- D -->
<g id="node5" class="node">
<title>D</title>
<ellipse fill="#00ffff" stroke="black" cx="162.41" cy="-314.8" rx="162.41" ry="18"/>
<text text-anchor="middle" x="162.41" y="-309.75" font-family="Times New Roman,serif" font-size="14.00">Grenzüberschreitende/ globale Probleme</text>
</g>
<!-- D&#45;&gt;Zentrum -->
<g id="edge4" class="edge">
<title>D&#45;&gt;Zentrum</title>
<path fill="none" stroke="black" d="M318,-320.15C340.55,-320.93 363.47,-321.71 385.16,-322.46"/>
<polygon fill="black" stroke="black" points="384.76,-325.95 394.87,-322.79 385,-318.95 384.76,-325.95"/>
</g>
<!-- E -->
<g id="node6" class="node">
<title>E</title>
<ellipse fill="#00ffff" stroke="black" cx="356.19" cy="-18" rx="54.93" ry="18"/>
<text text-anchor="middle" x="356.19" y="-12.95" font-family="Times New Roman,serif" font-size="14.00">Völkerrecht</text>
</g>
<!-- E&#45;&gt;Zentrum -->
<g id="edge5" class="edge">
<title>E&#45;&gt;Zentrum</title>
<path fill="none" stroke="black" d="M364.81,-35.92C381.7,-71.04 420.33,-151.33 452.71,-218.64"/>
<polygon fill="black" stroke="black" points="449.5,-220.04 456.99,-227.54 455.81,-217.01 449.5,-220.04"/>
</g>
<!-- F -->
<g id="node7" class="node">
<title>F</title>
<ellipse fill="#00ffff" stroke="black" cx="664.94" cy="-24" rx="110.21" ry="18"/>
<text text-anchor="middle" x="664.94" y="-18.95" font-family="Times New Roman,serif" font-size="14.00">informelle Vereinbarungen</text>
</g>
<!-- F&#45;&gt;Zentrum -->
<g id="edge6" class="edge">
<title>F&#45;&gt;Zentrum</title>
<path fill="none" stroke="black" d="M655.39,-42.02C637.02,-76.69 595.49,-155.06 560.67,-220.8"/>
<polygon fill="black" stroke="black" points="557.66,-219 556.07,-229.47 563.84,-222.28 557.66,-219"/>
</g>
</g>
</svg>
