<?xml version="1.0" encoding="UTF-8" standalone="no"?>
<!DOCTYPE svg PUBLIC "-//W3C//DTD SVG 1.1//EN"
 "http://www.w3.org/Graphics/SVG/1.1/DTD/svg11.dtd">
<!-- Generated by graphviz version 12.2.1 (20241206.2353)
 -->
<!-- Pages: 1 -->
<svg width="1070pt" height="317pt"
 viewBox="0.00 0.00 1069.60 317.00" xmlns="http://www.w3.org/2000/svg" xmlns:xlink="http://www.w3.org/1999/xlink">
<g id="graph0" class="graph" transform="scale(1 1) rotate(0) translate(4 313)">
<polygon fill="white" stroke="none" points="-4,4 -4,-313 1065.6,-313 1065.6,4 -4,4"/>
<g id="clust1" class="cluster">
<title>cluster_charta</title>
<path fill="#0000ff" fill-opacity="0.564706" stroke="#0000ff" stroke-width="1.5" d="M20,-8C20,-8 242.4,-8 242.4,-8 248.4,-8 254.4,-14 254.4,-20 254.4,-20 254.4,-289 254.4,-289 254.4,-295 248.4,-301 242.4,-301 242.4,-301 20,-301 20,-301 14,-301 8,-295 8,-289 8,-289 8,-20 8,-20 8,-14 14,-8 20,-8"/>
<text text-anchor="middle" x="131.2" y="-283.7" font-family="Times,serif" font-weight="bold" font-size="14.00">Charter&#45;Modell</text>
</g>
<g id="clust2" class="cluster">
<title>cluster_club</title>
<path fill="#0000ff" fill-opacity="0.439216" stroke="#0000ff" stroke-width="1.5" d="M286.4,-8C286.4,-8 508.8,-8 508.8,-8 514.8,-8 520.8,-14 520.8,-20 520.8,-20 520.8,-289 520.8,-289 520.8,-295 514.8,-301 508.8,-301 508.8,-301 286.4,-301 286.4,-301 280.4,-301 274.4,-295 274.4,-289 274.4,-289 274.4,-20 274.4,-20 274.4,-14 280.4,-8 286.4,-8"/>
<text text-anchor="middle" x="397.6" y="-283.7" font-family="Times,serif" font-weight="bold" font-size="14.00">Club&#45;Modell</text>
</g>
<g id="clust3" class="cluster">
<title>cluster_konzert</title>
<path fill="#0000ff" fill-opacity="0.313725" stroke="#0000ff" stroke-width="1.5" d="M552.8,-8C552.8,-8 775.2,-8 775.2,-8 781.2,-8 787.2,-14 787.2,-20 787.2,-20 787.2,-289 787.2,-289 787.2,-295 781.2,-301 775.2,-301 775.2,-301 552.8,-301 552.8,-301 546.8,-301 540.8,-295 540.8,-289 540.8,-289 540.8,-20 540.8,-20 540.8,-14 546.8,-8 552.8,-8"/>
<text text-anchor="middle" x="664" y="-283.7" font-family="Times,serif" font-weight="bold" font-size="14.00">Konzert&#45;Modell</text>
</g>
<g id="clust4" class="cluster">
<title>cluster_koalitionen</title>
<path fill="#0000ff" fill-opacity="0.188235" stroke="#0000ff" stroke-width="1.5" d="M819.2,-8C819.2,-8 1041.6,-8 1041.6,-8 1047.6,-8 1053.6,-14 1053.6,-20 1053.6,-20 1053.6,-289 1053.6,-289 1053.6,-295 1047.6,-301 1041.6,-301 1041.6,-301 819.2,-301 819.2,-301 813.2,-301 807.2,-295 807.2,-289 807.2,-289 807.2,-20 807.2,-20 807.2,-14 813.2,-8 819.2,-8"/>
<text text-anchor="middle" x="930.4" y="-283.7" font-family="Times,serif" font-weight="bold" font-size="14.00">Koalitionen&#45;Modell</text>
</g>
<!-- a1 -->
<g id="node1" class="node">
<title>a1</title>
<text text-anchor="middle" x="131.2" y="-46.95" font-family="Times New Roman,serif" font-size="14.00">Zusammenarbeit innerhalb der VN</text>
</g>
<!-- b1 -->
<g id="node4" class="node">
<title>b1</title>
<text text-anchor="middle" x="397.6" y="-46.95" font-family="Times New Roman,serif" font-size="14.00">Zusammenarbeit Gleichgesinnter</text>
</g>
<!-- a1&#45;&gt;b1 -->
<!-- a2 -->
<g id="node2" class="node">
<title>a2</title>
<text text-anchor="middle" x="131.2" y="-136.95" font-family="Times New Roman,serif" font-size="14.00">Gleichrangigkeit der Staaten</text>
</g>
<!-- a3 -->
<g id="node3" class="node">
<title>a3</title>
<text text-anchor="middle" x="131.2" y="-226.95" font-family="Times New Roman,serif" font-size="14.00">Legitimität</text>
</g>
<!-- c1 -->
<g id="node7" class="node">
<title>c1</title>
<text text-anchor="middle" x="664" y="-46.95" font-family="Times New Roman,serif" font-size="14.00">Großmächte sprechen sich ab</text>
</g>
<!-- b1&#45;&gt;c1 -->
<!-- b2 -->
<g id="node5" class="node">
<title>b2</title>
<text text-anchor="middle" x="397.6" y="-136.95" font-family="Times New Roman,serif" font-size="14.00">NATO, OECD, BRICS</text>
</g>
<!-- b3 -->
<g id="node6" class="node">
<title>b3</title>
<text text-anchor="middle" x="397.6" y="-226.95" font-family="Times New Roman,serif" font-size="14.00">Solidarität</text>
</g>
<!-- d1 -->
<g id="node10" class="node">
<title>d1</title>
<text text-anchor="middle" x="930.4" y="-46.95" font-family="Times New Roman,serif" font-size="14.00">Ad hoc Zusammenarbeit</text>
</g>
<!-- c1&#45;&gt;d1 -->
<!-- c2 -->
<g id="node8" class="node">
<title>c2</title>
<text text-anchor="middle" x="664" y="-145.2" font-family="Times New Roman,serif" font-size="14.00">Koexistenz unterschiedlicher</text>
<text text-anchor="middle" x="664" y="-128.7" font-family="Times New Roman,serif" font-size="14.00"> Regierungstypen</text>
</g>
<!-- c3 -->
<g id="node9" class="node">
<title>c3</title>
<text text-anchor="middle" x="664" y="-226.95" font-family="Times New Roman,serif" font-size="14.00">Fähigkeit</text>
</g>
<!-- d2 -->
<g id="node11" class="node">
<title>d2</title>
<text text-anchor="middle" x="930.4" y="-136.95" font-family="Times New Roman,serif" font-size="14.00">Sutuationsbedingte Kooperation</text>
</g>
<!-- d3 -->
<g id="node12" class="node">
<title>d3</title>
<text text-anchor="middle" x="930.4" y="-226.95" font-family="Times New Roman,serif" font-size="14.00">Flexibilität</text>
</g>
</g>
</svg>
