<?xml version="1.0" encoding="UTF-8" standalone="no"?>
<!DOCTYPE svg PUBLIC "-//W3C//DTD SVG 1.1//EN"
 "http://www.w3.org/Graphics/SVG/1.1/DTD/svg11.dtd">
<!-- Generated by graphviz version 12.2.1 (20241206.2353)
 -->
<!-- Title: G Pages: 1 -->
<svg width="512pt" height="452pt"
 viewBox="0.00 0.00 512.00 452.00" xmlns="http://www.w3.org/2000/svg" xmlns:xlink="http://www.w3.org/1999/xlink">
<g id="graph0" class="graph" transform="scale(1 1) rotate(0) translate(4 448)">
<title>G</title>
<polygon fill="white" stroke="none" points="-4,4 -4,-448 508,-448 508,4 -4,4"/>
<g id="clust1" class="cluster">
<title>cluster_0</title>
<path fill="lightblue" stroke="lightblue" d="M20,-8C20,-8 484,-8 484,-8 490,-8 496,-14 496,-20 496,-20 496,-424 496,-424 496,-430 490,-436 484,-436 484,-436 20,-436 20,-436 14,-436 8,-430 8,-424 8,-424 8,-20 8,-20 8,-14 14,-8 20,-8"/>
<text text-anchor="middle" x="252" y="-414.9" font-family="Times New Roman,serif" font-size="18.00">Global Governance</text>
</g>
<g id="clust2" class="cluster">
<title>cluster_1</title>
<path fill="lightblue" stroke="lightblue" d="M28,-93C28,-93 236,-93 236,-93 242,-93 248,-99 248,-105 248,-105 248,-387 248,-387 248,-393 242,-399 236,-399 236,-399 28,-399 28,-399 22,-399 16,-393 16,-387 16,-387 16,-105 16,-105 16,-99 22,-93 28,-93"/>
<text text-anchor="middle" x="132" y="-377.9" font-family="Times New Roman,serif" font-size="18.00">Governance</text>
</g>
<g id="clust4" class="cluster">
<title>cluster_2</title>
<path fill="lightblue" stroke="lightblue" d="M268,-16C268,-16 476,-16 476,-16 482,-16 488,-22 488,-28 488,-28 488,-384.5 488,-384.5 488,-390.5 482,-396.5 476,-396.5 476,-396.5 268,-396.5 268,-396.5 262,-396.5 256,-390.5 256,-384.5 256,-384.5 256,-28 256,-28 256,-22 262,-16 268,-16"/>
<text text-anchor="middle" x="372" y="-375.4" font-family="Times New Roman,serif" font-size="18.00">Global</text>
</g>
<!-- a1 -->
<g id="node1" class="node">
<title>a1</title>
<text text-anchor="start" x="32" y="-344.7" font-family="Times New Roman,serif" font-size="14.00">vs. regieren:</text>
<text text-anchor="start" x="32" y="-328.2" font-family="Times New Roman,serif" font-size="14.00"> verschiedene Akteure</text>
</g>
<!-- a2 -->
<g id="node2" class="node">
<title>a2</title>
<text text-anchor="start" x="32" y="-267.7" font-family="Times New Roman,serif" font-size="14.00">vs. managen:</text>
<text text-anchor="start" x="32" y="-251.2" font-family="Times New Roman,serif" font-size="14.00"> nicht nach innen gerichtet</text>
</g>
<!-- a1&#45;&gt;a2 -->
<!-- a3 -->
<g id="node3" class="node">
<title>a3</title>
<text text-anchor="start" x="32" y="-190.7" font-family="Times New Roman,serif" font-size="14.00">Merkmale:</text>
<text text-anchor="start" x="32" y="-174.2" font-family="Times New Roman,serif" font-size="14.00"> &#45; Problemorientierung</text>
<text text-anchor="start" x="32" y="-157.7" font-family="Times New Roman,serif" font-size="14.00"> &#45;Maßnahmenorientierung</text>
<text text-anchor="start" x="32" y="-141.2" font-family="Times New Roman,serif" font-size="14.00"> &#45; Bindewirkung</text>
<text text-anchor="start" x="32" y="-124.7" font-family="Times New Roman,serif" font-size="14.00"> &#45;Rechtfertigungszwang</text>
<text text-anchor="start" x="32" y="-108.2" font-family="Times New Roman,serif" font-size="14.00"> &#160;(&#45;orientierung)</text>
</g>
<!-- a2&#45;&gt;a3 -->
<!-- b1 -->
<g id="node4" class="node">
<title>b1</title>
<text text-anchor="start" x="272" y="-336.45" font-family="Times New Roman,serif" font-size="14.00">Weltumspannende Probleme</text>
</g>
<!-- b2 -->
<g id="node5" class="node">
<title>b2</title>
<text text-anchor="start" x="272" y="-267.7" font-family="Times New Roman,serif" font-size="14.00">lokale Probleme mit</text>
<text text-anchor="start" x="272" y="-251.2" font-family="Times New Roman,serif" font-size="14.00"> globaler Normativität</text>
</g>
<!-- b1&#45;&gt;b2 -->
<!-- b3 -->
<g id="node6" class="node">
<title>b3</title>
<text text-anchor="start" x="272" y="-157.7" font-family="Times New Roman,serif" font-size="14.00">Funktionsbedingungen</text>
<text text-anchor="start" x="272" y="-141.2" font-family="Times New Roman,serif" font-size="14.00"> globaler Vernetzung</text>
</g>
<!-- b2&#45;&gt;b3 -->
<!-- b4 -->
<g id="node7" class="node">
<title>b4</title>
<text text-anchor="start" x="272" y="-47.7" font-family="Times New Roman,serif" font-size="14.00">Anerkennung des Prinzips</text>
<text text-anchor="start" x="272" y="-31.2" font-family="Times New Roman,serif" font-size="14.00"> der Staatlichkeit</text>
</g>
<!-- b3&#45;&gt;b4 -->
</g>
</svg>
