<?xml version="1.0" encoding="UTF-8" standalone="no"?>
<!DOCTYPE svg PUBLIC "-//W3C//DTD SVG 1.1//EN"
 "http://www.w3.org/Graphics/SVG/1.1/DTD/svg11.dtd">
<!-- Generated by graphviz version 12.2.1 (20241206.2353)
 -->
<!-- Pages: 1 -->
<svg width="335pt" height="294pt"
 viewBox="0.00 0.00 335.20 294.00" xmlns="http://www.w3.org/2000/svg" xmlns:xlink="http://www.w3.org/1999/xlink">
<g id="graph0" class="graph" transform="scale(1 1) rotate(0) translate(4 290)">
<polygon fill="white" stroke="none" points="-4,4 -4,-290 331.2,-290 331.2,4 -4,4"/>
<g id="clust1" class="cluster">
<title>cluster_1</title>
<path fill="none" stroke="black" d="M20,-8C20,-8 307.2,-8 307.2,-8 313.2,-8 319.2,-14 319.2,-20 319.2,-20 319.2,-127 319.2,-127 319.2,-133 313.2,-139 307.2,-139 307.2,-139 20,-139 20,-139 14,-139 8,-133 8,-127 8,-127 8,-20 8,-20 8,-14 14,-8 20,-8"/>
<text text-anchor="middle" x="163.6" y="-121.7" font-family="Times,serif" font-weight="bold" font-size="14.00">Außenverhältnis</text>
</g>
<g id="clust2" class="cluster">
<title>cluster_2</title>
<path fill="none" stroke="black" d="M20,-147C20,-147 307.2,-147 307.2,-147 313.2,-147 319.2,-153 319.2,-159 319.2,-159 319.2,-266 319.2,-266 319.2,-272 313.2,-278 307.2,-278 307.2,-278 20,-278 20,-278 14,-278 8,-272 8,-266 8,-266 8,-159 8,-159 8,-153 14,-147 20,-147"/>
<text text-anchor="middle" x="163.6" y="-260.7" font-family="Times,serif" font-weight="bold" font-size="14.00">Innenverhältnis</text>
</g>
<!-- A1 -->
<g id="node1" class="node">
<title>A1</title>
<ellipse fill="none" stroke="black" stroke-width="0" cx="80.8" cy="-34" rx="64.8" ry="18"/>
<text text-anchor="middle" x="80.8" y="-28.95" font-family="Times New Roman,serif" font-size="14.00">Entflechtung</text>
</g>
<!-- B1 -->
<g id="node2" class="node">
<title>B1</title>
<ellipse fill="none" stroke="black" stroke-width="0" cx="246.4" cy="-34" rx="64.8" ry="18"/>
<text text-anchor="middle" x="246.4" y="-28.95" font-family="Times New Roman,serif" font-size="14.00">Blockbildung</text>
</g>
<!-- A1&#45;&gt;B1 -->
<!-- A -->
<g id="node3" class="node">
<title>A</title>
<ellipse fill="none" stroke="black" stroke-width="0" cx="80.8" cy="-88" rx="64.8" ry="18"/>
<text text-anchor="middle" x="80.8" y="-82.95" font-family="Times New Roman,serif" font-size="14.00">Globalisierung</text>
</g>
<!-- A&#45;&gt;A1 -->
<g id="edge5" class="edge">
<title>A&#45;&gt;A1</title>
<path fill="none" stroke="black" d="M80.8,-70.14C80.8,-67.74 80.8,-65.34 80.8,-62.95"/>
<polygon fill="black" stroke="black" points="84.3,-63.23 80.8,-53.23 77.3,-63.23 84.3,-63.23"/>
</g>
<!-- B -->
<g id="node4" class="node">
<title>B</title>
<ellipse fill="none" stroke="black" stroke-width="0" cx="246.4" cy="-88" rx="64.8" ry="18"/>
<text text-anchor="middle" x="246.4" y="-82.95" font-family="Times New Roman,serif" font-size="14.00">Global Governance</text>
</g>
<!-- A&#45;&gt;B -->
<!-- B&#45;&gt;B1 -->
<g id="edge6" class="edge">
<title>B&#45;&gt;B1</title>
<path fill="none" stroke="black" d="M246.4,-70.14C246.4,-67.74 246.4,-65.34 246.4,-62.95"/>
<polygon fill="black" stroke="black" points="249.9,-63.23 246.4,-53.23 242.9,-63.23 249.9,-63.23"/>
</g>
<!-- C1 -->
<g id="node5" class="node">
<title>C1</title>
<ellipse fill="none" stroke="black" stroke-width="0" cx="80.8" cy="-173" rx="64.8" ry="18"/>
<text text-anchor="middle" x="80.8" y="-167.95" font-family="Times New Roman,serif" font-size="14.00">Autokratisierung</text>
</g>
<!-- D1 -->
<g id="node6" class="node">
<title>D1</title>
<ellipse fill="none" stroke="black" stroke-width="0" cx="246.4" cy="-173" rx="64.8" ry="18"/>
<text text-anchor="middle" x="246.4" y="-167.95" font-family="Times New Roman,serif" font-size="14.00">Polarisierung</text>
</g>
<!-- C1&#45;&gt;D1 -->
<!-- C -->
<g id="node7" class="node">
<title>C</title>
<ellipse fill="none" stroke="black" stroke-width="0" cx="80.8" cy="-227" rx="64.8" ry="18"/>
<text text-anchor="middle" x="80.8" y="-221.95" font-family="Times New Roman,serif" font-size="14.00">Demokratisierung</text>
</g>
<!-- C&#45;&gt;C1 -->
<g id="edge7" class="edge">
<title>C&#45;&gt;C1</title>
<path fill="none" stroke="black" d="M80.8,-209.14C80.8,-206.74 80.8,-204.34 80.8,-201.95"/>
<polygon fill="black" stroke="black" points="84.3,-202.23 80.8,-192.23 77.3,-202.23 84.3,-202.23"/>
</g>
<!-- D -->
<g id="node8" class="node">
<title>D</title>
<ellipse fill="none" stroke="black" stroke-width="0" cx="246.4" cy="-227" rx="64.8" ry="18"/>
<text text-anchor="middle" x="246.4" y="-221.95" font-family="Times New Roman,serif" font-size="14.00">Liberalisierung</text>
</g>
<!-- C&#45;&gt;D -->
<!-- D&#45;&gt;D1 -->
<g id="edge8" class="edge">
<title>D&#45;&gt;D1</title>
<path fill="none" stroke="black" d="M246.4,-209.14C246.4,-206.74 246.4,-204.34 246.4,-201.95"/>
<polygon fill="black" stroke="black" points="249.9,-202.23 246.4,-192.23 242.9,-202.23 249.9,-202.23"/>
</g>
</g>
</svg>
