<?xml version="1.0" encoding="UTF-8" standalone="no"?>
<!DOCTYPE svg PUBLIC "-//W3C//DTD SVG 1.1//EN"
 "http://www.w3.org/Graphics/SVG/1.1/DTD/svg11.dtd">
<!-- Generated by graphviz version 12.2.1 (20241206.2353)
 -->
<!-- Pages: 1 -->
<svg width="735pt" height="365pt"
 viewBox="0.00 0.00 734.61 364.56" xmlns="http://www.w3.org/2000/svg" xmlns:xlink="http://www.w3.org/1999/xlink">
<g id="graph0" class="graph" transform="scale(1 1) rotate(0) translate(4 360.56)">
<polygon fill="white" stroke="none" points="-4,4 -4,-360.56 730.61,-360.56 730.61,4 -4,4"/>
<g id="clust1" class="cluster">
<title>cluster_crisis</title>
<path fill="#f0f0f0" stroke="black" d="M175.46,-55.56C175.46,-55.56 320.32,-55.56 320.32,-55.56 326.32,-55.56 332.32,-61.56 332.32,-67.56 332.32,-67.56 332.32,-336.56 332.32,-336.56 332.32,-342.56 326.32,-348.56 320.32,-348.56 320.32,-348.56 175.46,-348.56 175.46,-348.56 169.46,-348.56 163.46,-342.56 163.46,-336.56 163.46,-336.56 163.46,-67.56 163.46,-67.56 163.46,-61.56 169.46,-55.56 175.46,-55.56"/>
<text text-anchor="middle" x="247.89" y="-331.26" font-family="Times New Roman,serif" font-size="14.00">Krise</text>
</g>
<g id="clust2" class="cluster">
<title>cluster_group</title>
<path fill="#f0f0f0" stroke="black" d="M364.32,-55.56C364.32,-55.56 500.99,-55.56 500.99,-55.56 506.99,-55.56 512.99,-61.56 512.99,-67.56 512.99,-67.56 512.99,-336.56 512.99,-336.56 512.99,-342.56 506.99,-348.56 500.99,-348.56 500.99,-348.56 364.32,-348.56 364.32,-348.56 358.32,-348.56 352.32,-342.56 352.32,-336.56 352.32,-336.56 352.32,-67.56 352.32,-67.56 352.32,-61.56 358.32,-55.56 364.32,-55.56"/>
<text text-anchor="middle" x="432.65" y="-331.26" font-family="Times New Roman,serif" font-size="14.00">Innovation</text>
</g>
<!-- a -->
<g id="node1" class="node">
<title>a</title>
<ellipse fill="none" stroke="black" cx="67.73" cy="-189.56" rx="67.73" ry="18"/>
<text text-anchor="middle" x="67.73" y="-184.51" font-family="Times New Roman,serif" font-size="14.00">Normalzustand</text>
</g>
<!-- b3 -->
<g id="node5" class="node">
<title>b3</title>
<ellipse fill="none" stroke="black" cx="247.89" cy="-189.56" rx="40.09" ry="18"/>
<text text-anchor="middle" x="247.89" y="-184.51" font-family="Times,serif" font-weight="bold" font-size="14.00">Zweifel</text>
</g>
<!-- a&#45;&gt;b3 -->
<g id="edge1" class="edge">
<title>a&#45;&gt;b3</title>
<path fill="none" stroke="black" d="M135.83,-189.56C155.84,-189.56 177.43,-189.56 196.21,-189.56"/>
<polygon fill="black" stroke="black" points="195.98,-193.06 205.98,-189.56 195.98,-186.06 195.98,-193.06"/>
</g>
<!-- d -->
<g id="node2" class="node">
<title>d</title>
<ellipse fill="none" stroke="black" cx="633.8" cy="-189.56" rx="92.81" ry="18"/>
<text text-anchor="middle" x="633.8" y="-184.51" font-family="Times New Roman,serif" font-size="14.00">Neuer Normalzustand</text>
</g>
<!-- d&#45;&gt;a -->
<g id="edge4" class="edge">
<title>d&#45;&gt;a</title>
<path fill="none" stroke="black" d="M623.68,-171.26C606.85,-139.8 567.55,-76.45 512.99,-51.56 371.65,12.91 300.92,20.81 163.46,-51.56 119.8,-74.55 92.38,-127.76 78.87,-160.98"/>
<polygon fill="black" stroke="black" points="75.72,-159.41 75.36,-170 82.25,-161.95 75.72,-159.41"/>
</g>
<!-- b1 -->
<g id="node3" class="node">
<title>b1</title>
<ellipse fill="none" stroke="black" cx="247.89" cy="-81.56" rx="50.33" ry="18"/>
<text text-anchor="middle" x="247.89" y="-76.51" font-family="Times New Roman,serif" font-size="14.00">Ideologien</text>
</g>
<!-- b2 -->
<g id="node4" class="node">
<title>b2</title>
<ellipse fill="none" stroke="black" cx="247.89" cy="-135.56" rx="60.05" ry="18"/>
<text text-anchor="middle" x="247.89" y="-130.51" font-family="Times New Roman,serif" font-size="14.00">Wissenschaft</text>
</g>
<!-- c3 -->
<g id="node10" class="node">
<title>c3</title>
<ellipse fill="none" stroke="black" cx="432.65" cy="-189.56" rx="51.35" ry="18"/>
<text text-anchor="middle" x="432.65" y="-184.51" font-family="Times,serif" font-weight="bold" font-size="14.00">Vertrauen</text>
</g>
<!-- b3&#45;&gt;c3 -->
<g id="edge2" class="edge">
<title>b3&#45;&gt;c3</title>
<path fill="none" stroke="black" d="M288.1,-189.56C311.87,-189.56 342.72,-189.56 369.73,-189.56"/>
<polygon fill="black" stroke="black" points="369.52,-193.06 379.52,-189.56 369.52,-186.06 369.52,-193.06"/>
</g>
<!-- b4 -->
<g id="node6" class="node">
<title>b4</title>
<ellipse fill="none" stroke="black" cx="247.89" cy="-243.56" rx="75.41" ry="18"/>
<text text-anchor="middle" x="247.89" y="-238.51" font-family="Times New Roman,serif" font-size="14.00">Dysfunktionalität</text>
</g>
<!-- b5 -->
<g id="node7" class="node">
<title>b5</title>
<ellipse fill="none" stroke="black" cx="247.89" cy="-297.56" rx="76.43" ry="18"/>
<text text-anchor="middle" x="247.89" y="-292.51" font-family="Times New Roman,serif" font-size="14.00">Exogene Schocks</text>
</g>
<!-- c1 -->
<g id="node8" class="node">
<title>c1</title>
<ellipse fill="none" stroke="black" cx="432.65" cy="-81.56" rx="50.33" ry="18"/>
<text text-anchor="middle" x="432.65" y="-76.51" font-family="Times New Roman,serif" font-size="14.00">Ideologien</text>
</g>
<!-- c2 -->
<g id="node9" class="node">
<title>c2</title>
<ellipse fill="none" stroke="black" cx="432.65" cy="-135.56" rx="60.05" ry="18"/>
<text text-anchor="middle" x="432.65" y="-130.51" font-family="Times New Roman,serif" font-size="14.00">Wissenschaft</text>
</g>
<!-- c3&#45;&gt;d -->
<g id="edge3" class="edge">
<title>c3&#45;&gt;d</title>
<path fill="none" stroke="black" d="M484.42,-189.56C498.24,-189.56 513.72,-189.56 529.33,-189.56"/>
<polygon fill="black" stroke="black" points="529.18,-193.06 539.18,-189.56 529.18,-186.06 529.18,-193.06"/>
</g>
<!-- c4 -->
<g id="node11" class="node">
<title>c4</title>
<ellipse fill="none" stroke="black" cx="432.65" cy="-243.56" rx="51.35" ry="18"/>
<text text-anchor="middle" x="432.65" y="-238.51" font-family="Times New Roman,serif" font-size="14.00">Interaktion</text>
</g>
<!-- c5 -->
<g id="node12" class="node">
<title>c5</title>
<ellipse fill="none" stroke="black" cx="432.65" cy="-297.56" rx="72.34" ry="18"/>
<text text-anchor="middle" x="432.65" y="-292.51" font-family="Times New Roman,serif" font-size="14.00">Persönlichkeiten</text>
</g>
</g>
</svg>
