<?xml version="1.0" encoding="UTF-8" standalone="no"?>
<!DOCTYPE svg PUBLIC "-//W3C//DTD SVG 1.1//EN"
 "http://www.w3.org/Graphics/SVG/1.1/DTD/svg11.dtd">
<!-- Generated by graphviz version 12.2.1 (20241206.2353)
 -->
<!-- Title: satelliten Pages: 1 -->
<svg width="721pt" height="504pt"
 viewBox="0.00 0.00 721.10 504.09" xmlns="http://www.w3.org/2000/svg" xmlns:xlink="http://www.w3.org/1999/xlink">
<g id="graph0" class="graph" transform="scale(1 1) rotate(0) translate(4 500.09)">
<title>satelliten</title>
<polygon fill="white" stroke="none" points="-4,4 -4,-500.09 717.1,-500.09 717.1,4 -4,4"/>
<!-- Zentrum -->
<g id="node1" class="node">
<title>Zentrum</title>
<ellipse fill="#00bfff" stroke="black" cx="356.3" cy="-252.74" rx="72" ry="72"/>
<text text-anchor="middle" x="356.3" y="-244.99" font-family="Times,serif" font-weight="bold" font-size="20.00">Heuristiken</text>
</g>
<!-- A -->
<g id="node2" class="node">
<title>A</title>
<ellipse fill="#00ffff" stroke="black" cx="615.34" cy="-252.74" rx="97.76" ry="40.66"/>
<text text-anchor="middle" x="615.34" y="-264.19" font-family="Times New Roman,serif" font-size="14.00">Plausibel/</text>
<text text-anchor="start" x="554.21" y="-247.69" font-family="Times New Roman,serif" font-size="14.00"> nicht im Widerspruch</text>
<text text-anchor="middle" x="615.34" y="-231.19" font-family="Times New Roman,serif" font-size="14.00"> zum Alltag,</text>
</g>
<!-- A&#45;&gt;Zentrum -->
<g id="edge1" class="edge">
<title>A&#45;&gt;Zentrum</title>
<path fill="none" stroke="black" d="M517.41,-252.74C491.93,-252.74 464.71,-252.74 440.04,-252.74"/>
<polygon fill="black" stroke="black" points="440.04,-249.24 430.04,-252.74 440.04,-256.24 440.04,-249.24"/>
</g>
<!-- B -->
<g id="node3" class="node">
<title>B</title>
<ellipse fill="#00ffff" stroke="black" cx="484.04" cy="-478.09" rx="103.56" ry="18"/>
<text text-anchor="middle" x="484.04" y="-473.04" font-family="Times New Roman,serif" font-size="14.00">In der Peer Group geteilt</text>
</g>
<!-- B&#45;&gt;Zentrum -->
<g id="edge2" class="edge">
<title>B&#45;&gt;Zentrum</title>
<path fill="none" stroke="black" d="M473.8,-460.03C457.44,-431.16 424.51,-373.07 397.67,-325.71"/>
<polygon fill="black" stroke="black" points="400.76,-324.07 392.79,-317.1 394.67,-327.52 400.76,-324.07"/>
</g>
<!-- C -->
<g id="node4" class="node">
<title>C</title>
<ellipse fill="#00ffff" stroke="black" cx="211.45" cy="-467.48" rx="111.74" ry="18"/>
<text text-anchor="middle" x="211.45" y="-462.43" font-family="Times New Roman,serif" font-size="14.00">Durch Autoritäten bestätigt</text>
</g>
<!-- C&#45;&gt;Zentrum -->
<g id="edge3" class="edge">
<title>C&#45;&gt;Zentrum</title>
<path fill="none" stroke="black" d="M223.8,-449.17C242.64,-421.24 279.55,-366.52 309.64,-321.91"/>
<polygon fill="black" stroke="black" points="312.41,-324.06 315.1,-313.81 306.61,-320.15 312.41,-324.06"/>
</g>
<!-- D -->
<g id="node5" class="node">
<title>D</title>
<ellipse fill="#00ffff" stroke="black" cx="98.95" cy="-223.27" rx="98.95" ry="18"/>
<text text-anchor="middle" x="98.95" y="-218.22" font-family="Times New Roman,serif" font-size="14.00">Passend zum Selbstbild</text>
</g>
<!-- D&#45;&gt;Zentrum -->
<g id="edge4" class="edge">
<title>D&#45;&gt;Zentrum</title>
<path fill="none" stroke="black" d="M183.57,-232.96C212.41,-236.26 244.61,-239.95 273.32,-243.24"/>
<polygon fill="black" stroke="black" points="272.72,-246.69 283.05,-244.35 273.52,-239.74 272.72,-246.69"/>
</g>
<!-- E -->
<g id="node6" class="node">
<title>E</title>
<ellipse fill="#00ffff" stroke="black" cx="246.77" cy="-18" rx="93.32" ry="18"/>
<text text-anchor="middle" x="246.77" y="-12.95" font-family="Times New Roman,serif" font-size="14.00">Passend zum Weltbild</text>
</g>
<!-- E&#45;&gt;Zentrum -->
<g id="edge5" class="edge">
<title>E&#45;&gt;Zentrum</title>
<path fill="none" stroke="black" d="M255.36,-36.42C269.32,-66.34 297.69,-127.13 320.81,-176.68"/>
<polygon fill="black" stroke="black" points="317.62,-178.11 325.02,-185.69 323.96,-175.15 317.62,-178.11"/>
</g>
<!-- F -->
<g id="node7" class="node">
<title>F</title>
<ellipse fill="#00ffff" stroke="black" cx="493.58" cy="-33.07" rx="92.45" ry="28.99"/>
<text text-anchor="start" x="436.2" y="-36.27" font-family="Times New Roman,serif" font-size="14.00">Hilfreich für</text>
<text text-anchor="middle" x="493.58" y="-19.77" font-family="Times New Roman,serif" font-size="14.00"> normatives Problem</text>
</g>
<!-- F&#45;&gt;Zentrum -->
<g id="edge6" class="edge">
<title>F&#45;&gt;Zentrum</title>
<path fill="none" stroke="black" d="M475.63,-61.78C456.66,-92.15 426.01,-141.19 400.52,-181.97"/>
<polygon fill="black" stroke="black" points="397.64,-179.99 395.3,-190.33 403.57,-183.7 397.64,-179.99"/>
</g>
</g>
</svg>
