<?xml version="1.0" encoding="UTF-8" standalone="no"?>
<!DOCTYPE svg PUBLIC "-//W3C//DTD SVG 1.1//EN"
 "http://www.w3.org/Graphics/SVG/1.1/DTD/svg11.dtd">
<!-- Generated by graphviz version 12.2.1 (20241206.2353)
 -->
<!-- Pages: 1 -->
<svg width="701pt" height="548pt"
 viewBox="0.00 0.00 701.00 548.00" xmlns="http://www.w3.org/2000/svg" xmlns:xlink="http://www.w3.org/1999/xlink">
<g id="graph0" class="graph" transform="scale(1 1) rotate(0) translate(4 544)">
<polygon fill="white" stroke="none" points="-4,4 -4,-544 697,-544 697,4 -4,4"/>
<text text-anchor="middle" x="346.5" y="-517" font-family="Times,serif" font-weight="bold" font-size="20.00">Menschheitsgeschichtliche Wachstumsphasen</text>
<!-- invis1 -->
<g id="node1" class="node">
<title>invis1</title>
</g>
<!-- B0 -->
<g id="node3" class="node">
<title>B0</title>
<text text-anchor="middle" x="90" y="-419.82" font-family="Times New Roman,serif" font-size="14.00">Vor 70.000 Jahren&#13;</text>
</g>
<!-- invis1&#45;&gt;B0 -->
<!-- A0 -->
<g id="node2" class="node">
<title>A0</title>
<polygon fill="none" stroke="black" points="414,-437.5 198,-437.5 198,-396.5 414,-396.5 414,-437.5"/>
<text text-anchor="start" x="206" y="-420.2" font-family="Times New Roman,serif" font-size="14.00">Kognitive Revolution:</text>
<text text-anchor="start" x="206" y="-403.7" font-family="Times New Roman,serif" font-size="14.00"> Besiedelung der Welt</text>
</g>
<!-- A1 -->
<g id="node5" class="node">
<title>A1</title>
<polygon fill="none" stroke="black" points="414,-360.5 198,-360.5 198,-303 414,-303 414,-360.5"/>
<text text-anchor="start" x="206" y="-343.2" font-family="Times New Roman,serif" font-size="14.00">Neolithische Revolution:</text>
<text text-anchor="start" x="206" y="-326.7" font-family="Times New Roman,serif" font-size="14.00"> Sesshaftigkeit und</text>
<text text-anchor="start" x="206" y="-310.2" font-family="Times New Roman,serif" font-size="14.00"> Ackerbau</text>
</g>
<!-- A0&#45;&gt;A1 -->
<!-- B1 -->
<g id="node6" class="node">
<title>B1</title>
<text text-anchor="middle" x="90" y="-334.57" font-family="Times New Roman,serif" font-size="14.00">Vor 10.000 Jahren&#13;</text>
</g>
<!-- B0&#45;&gt;B1 -->
<g id="edge2" class="edge">
<title>B0&#45;&gt;B1</title>
<path fill="none" stroke="black" d="M90,-397.11C90,-387.07 90,-374.48 90,-363.11"/>
<polygon fill="black" stroke="black" points="93.5,-363.37 90,-353.37 86.5,-363.37 93.5,-363.37"/>
</g>
<!-- C0 -->
<g id="node4" class="node">
<title>C0</title>
<text text-anchor="middle" x="540" y="-411.95" font-family="Times New Roman,serif" font-size="14.00">Räumliche Ausdehnung</text>
</g>
<!-- C1 -->
<g id="node7" class="node">
<title>C1</title>
<text text-anchor="middle" x="540" y="-326.7" font-family="Times New Roman,serif" font-size="14.00">Bevölkerungswachstum</text>
</g>
<!-- C0&#45;&gt;C1 -->
<!-- A2 -->
<g id="node8" class="node">
<title>A2</title>
<polygon fill="none" stroke="black" points="414,-267 198,-267 198,-226 414,-226 414,-267"/>
<text text-anchor="start" x="206" y="-249.7" font-family="Times New Roman,serif" font-size="14.00">Wissenschaftliche Revolution:</text>
<text text-anchor="start" x="206" y="-233.2" font-family="Times New Roman,serif" font-size="14.00"> Systematische Forschung</text>
</g>
<!-- A1&#45;&gt;A2 -->
<!-- B2 -->
<g id="node9" class="node">
<title>B2</title>
<text text-anchor="middle" x="90" y="-249.32" font-family="Times New Roman,serif" font-size="14.00">16. Jh&#13;</text>
</g>
<!-- B1&#45;&gt;B2 -->
<g id="edge5" class="edge">
<title>B1&#45;&gt;B2</title>
<path fill="none" stroke="black" d="M90,-311.86C90,-301.82 90,-289.23 90,-277.86"/>
<polygon fill="black" stroke="black" points="93.5,-278.12 90,-268.12 86.5,-278.12 93.5,-278.12"/>
</g>
<!-- C2 -->
<g id="node10" class="node">
<title>C2</title>
<text text-anchor="middle" x="540" y="-241.45" font-family="Times New Roman,serif" font-size="14.00">Wissenszuwachs</text>
</g>
<!-- C1&#45;&gt;C2 -->
<!-- A3 -->
<g id="node11" class="node">
<title>A3</title>
<polygon fill="none" stroke="black" points="414,-190 198,-190 198,-149 414,-149 414,-190"/>
<text text-anchor="start" x="206" y="-172.7" font-family="Times New Roman,serif" font-size="14.00">Industrielle Revolution:</text>
<text text-anchor="start" x="206" y="-156.2" font-family="Times New Roman,serif" font-size="14.00"> Industrielle Produktion</text>
</g>
<!-- A2&#45;&gt;A3 -->
<!-- B3 -->
<g id="node12" class="node">
<title>B3</title>
<text text-anchor="middle" x="90" y="-172.32" font-family="Times New Roman,serif" font-size="14.00">19. Jh&#13;</text>
</g>
<!-- B2&#45;&gt;B3 -->
<g id="edge8" class="edge">
<title>B2&#45;&gt;B3</title>
<path fill="none" stroke="black" d="M90,-226.57C90,-218.76 90,-209.5 90,-200.78"/>
<polygon fill="black" stroke="black" points="93.5,-200.93 90,-190.93 86.5,-200.93 93.5,-200.93"/>
</g>
<!-- C3 -->
<g id="node13" class="node">
<title>C3</title>
<text text-anchor="middle" x="540" y="-164.45" font-family="Times New Roman,serif" font-size="14.00">Produktionswachstum</text>
</g>
<!-- C2&#45;&gt;C3 -->
<!-- A4 -->
<g id="node14" class="node">
<title>A4</title>
<polygon fill="none" stroke="black" points="414,-113 198,-113 198,-72 414,-72 414,-113"/>
<text text-anchor="start" x="206" y="-95.7" font-family="Times New Roman,serif" font-size="14.00">Digitale Revolution:</text>
<text text-anchor="start" x="206" y="-79.2" font-family="Times New Roman,serif" font-size="14.00"> EDV, IKT, KI</text>
</g>
<!-- A3&#45;&gt;A4 -->
<!-- B4 -->
<g id="node15" class="node">
<title>B4</title>
<text text-anchor="middle" x="90" y="-95.33" font-family="Times New Roman,serif" font-size="14.00">Gegenwart&#13;</text>
</g>
<!-- B3&#45;&gt;B4 -->
<g id="edge11" class="edge">
<title>B3&#45;&gt;B4</title>
<path fill="none" stroke="black" d="M90,-149.57C90,-141.76 90,-132.5 90,-123.78"/>
<polygon fill="black" stroke="black" points="93.5,-123.93 90,-113.93 86.5,-123.93 93.5,-123.93"/>
</g>
<!-- C4 -->
<g id="node16" class="node">
<title>C4</title>
<text text-anchor="middle" x="540" y="-87.45" font-family="Times New Roman,serif" font-size="14.00">?</text>
</g>
<!-- C3&#45;&gt;C4 -->
<!-- invis -->
<g id="node17" class="node">
<title>invis</title>
</g>
<!-- A4&#45;&gt;invis -->
<!-- caption -->
<g id="node18" class="node">
<title>caption</title>
<text text-anchor="middle" x="441" y="-14.12" font-family="Times New Roman,serif" font-size="10.00">Darstellung: Jan S. Voßwinkel in Anlehnung an Groviec (2022)</text>
</g>
<!-- A4&#45;&gt;caption -->
</g>
</svg>
