<?xml version="1.0" encoding="UTF-8" standalone="no"?>
<!DOCTYPE svg PUBLIC "-//W3C//DTD SVG 1.1//EN"
 "http://www.w3.org/Graphics/SVG/1.1/DTD/svg11.dtd">
<!-- Generated by graphviz version 12.2.1 (20241206.2353)
 -->
<!-- Pages: 1 -->
<svg width="722pt" height="270pt"
 viewBox="0.00 0.00 721.94 269.64" xmlns="http://www.w3.org/2000/svg" xmlns:xlink="http://www.w3.org/1999/xlink">
<g id="graph0" class="graph" transform="scale(1 1) rotate(0) translate(4 265.64)">
<polygon fill="white" stroke="none" points="-4,4 -4,-265.64 717.94,-265.64 717.94,4 -4,4"/>
<g id="clust1" class="cluster">
<title>cluster_abc</title>
<path fill="#f0f0f0" stroke="black" d="M20,-27.64C20,-27.64 503.68,-27.64 503.68,-27.64 509.68,-27.64 515.68,-33.64 515.68,-39.64 515.68,-39.64 515.68,-241.64 515.68,-241.64 515.68,-247.64 509.68,-253.64 503.68,-253.64 503.68,-253.64 20,-253.64 20,-253.64 14,-253.64 8,-247.64 8,-241.64 8,-241.64 8,-39.64 8,-39.64 8,-33.64 14,-27.64 20,-27.64"/>
<text text-anchor="middle" x="261.84" y="-236.34" font-family="Times New Roman,serif" font-size="14.00">Paradigma</text>
</g>
<g id="clust2" class="cluster">
<title>cluster_b</title>
<path fill="#e8e8e8" stroke="black" d="M165.87,-35.64C165.87,-35.64 384.43,-35.64 384.43,-35.64 390.43,-35.64 396.43,-41.64 396.43,-47.64 396.43,-47.64 396.43,-208.64 396.43,-208.64 396.43,-214.64 390.43,-220.64 384.43,-220.64 384.43,-220.64 165.87,-220.64 165.87,-220.64 159.87,-220.64 153.87,-214.64 153.87,-208.64 153.87,-208.64 153.87,-47.64 153.87,-47.64 153.87,-41.64 159.87,-35.64 165.87,-35.64"/>
<text text-anchor="middle" x="275.15" y="-203.34" font-family="Times New Roman,serif" font-size="14.00">Weiterentwicklung</text>
</g>
<!-- a -->
<g id="node1" class="node">
<title>a</title>
<ellipse fill="none" stroke="black" cx="70.93" cy="-169.64" rx="54.93" ry="18"/>
<text text-anchor="middle" x="70.93" y="-164.59" font-family="Times New Roman,serif" font-size="14.00">Basisdesign</text>
</g>
<!-- b -->
<g id="node3" class="node">
<title>b</title>
<ellipse fill="none" stroke="black" cx="275.15" cy="-169.64" rx="113.28" ry="18"/>
<text text-anchor="middle" x="275.15" y="-164.59" font-family="Times New Roman,serif" font-size="14.00">inkrementelle Innovationen</text>
</g>
<!-- a&#45;&gt;b -->
<g id="edge3" class="edge">
<title>a&#45;&gt;b</title>
<path fill="none" stroke="black" d="M126.12,-169.64C133.76,-169.64 141.86,-169.64 150.18,-169.64"/>
<polygon fill="black" stroke="black" points="150.12,-173.14 160.12,-169.64 150.12,-166.14 150.12,-173.14"/>
</g>
<!-- c -->
<g id="node2" class="node">
<title>c</title>
<ellipse fill="none" stroke="black" cx="466.06" cy="-169.64" rx="41.63" ry="18"/>
<text text-anchor="middle" x="466.06" y="-164.59" font-family="Times New Roman,serif" font-size="14.00">Engpass</text>
</g>
<!-- d -->
<g id="node6" class="node">
<title>d</title>
<ellipse fill="none" stroke="black" cx="628.81" cy="-169.64" rx="85.13" ry="18"/>
<text text-anchor="middle" x="628.81" y="-164.59" font-family="Times New Roman,serif" font-size="14.00">Paradigmenwechsel</text>
</g>
<!-- c&#45;&gt;d -->
<g id="edge5" class="edge">
<title>c&#45;&gt;d</title>
<path fill="none" stroke="black" d="M508.04,-169.64C515.52,-169.64 523.61,-169.64 531.93,-169.64"/>
<polygon fill="black" stroke="black" points="531.86,-173.14 541.86,-169.64 531.86,-166.14 531.86,-173.14"/>
</g>
<!-- b&#45;&gt;c -->
<g id="edge4" class="edge">
<title>b&#45;&gt;c</title>
<path fill="none" stroke="black" d="M388.76,-169.64C396.96,-169.64 404.96,-169.64 412.52,-169.64"/>
<polygon fill="black" stroke="black" points="412.47,-173.14 422.47,-169.64 412.47,-166.14 412.47,-173.14"/>
</g>
<!-- b1 -->
<g id="node4" class="node">
<title>b1</title>
<ellipse fill="none" stroke="black" cx="275.15" cy="-115.64" rx="76.43" ry="18"/>
<text text-anchor="middle" x="275.15" y="-110.59" font-family="Times New Roman,serif" font-size="14.00">learning by doing</text>
</g>
<!-- b1&#45;&gt;b -->
<!-- b2 -->
<g id="node5" class="node">
<title>b2</title>
<ellipse fill="none" stroke="black" cx="275.15" cy="-61.64" rx="76.94" ry="18"/>
<text text-anchor="middle" x="275.15" y="-56.59" font-family="Times New Roman,serif" font-size="14.00">implizites Wissen</text>
</g>
<!-- b2&#45;&gt;b1 -->
<!-- d&#45;&gt;a -->
<g id="edge6" class="edge">
<title>d&#45;&gt;a</title>
<path fill="none" stroke="black" d="M606.99,-151.81C568.51,-120.17 482.33,-55.31 396.43,-31.64 292.5,-3 247.56,21.69 153.87,-31.64 112.93,-54.95 90.33,-107.66 79.7,-140.77"/>
<polygon fill="black" stroke="black" points="76.41,-139.55 76.87,-150.14 83.11,-141.58 76.41,-139.55"/>
</g>
</g>
</svg>
