<?xml version="1.0" encoding="UTF-8" standalone="no"?>
<!DOCTYPE svg PUBLIC "-//W3C//DTD SVG 1.1//EN"
 "http://www.w3.org/Graphics/SVG/1.1/DTD/svg11.dtd">
<!-- Generated by graphviz version 12.2.1 (20241206.2353)
 -->
<!-- Pages: 1 -->
<svg width="722pt" height="256pt"
 viewBox="0.00 0.00 721.94 255.71" xmlns="http://www.w3.org/2000/svg" xmlns:xlink="http://www.w3.org/1999/xlink">
<g id="graph0" class="graph" transform="scale(1 1) rotate(0) translate(4 251.71)">
<polygon fill="white" stroke="none" points="-4,4 -4,-251.71 717.94,-251.71 717.94,4 -4,4"/>
<g id="clust1" class="cluster">
<title>cluster_abc</title>
<path fill="#f0f0f0" stroke="black" d="M20,-13.71C20,-13.71 503.68,-13.71 503.68,-13.71 509.68,-13.71 515.68,-19.71 515.68,-25.71 515.68,-25.71 515.68,-227.71 515.68,-227.71 515.68,-233.71 509.68,-239.71 503.68,-239.71 503.68,-239.71 20,-239.71 20,-239.71 14,-239.71 8,-233.71 8,-227.71 8,-227.71 8,-25.71 8,-25.71 8,-19.71 14,-13.71 20,-13.71"/>
<text text-anchor="middle" x="261.84" y="-222.41" font-family="Times New Roman,serif" font-size="14.00">Paradigma</text>
</g>
<g id="clust2" class="cluster">
<title>cluster_b</title>
<path fill="#e8e8e8" stroke="black" d="M165.87,-21.71C165.87,-21.71 384.43,-21.71 384.43,-21.71 390.43,-21.71 396.43,-27.71 396.43,-33.71 396.43,-33.71 396.43,-194.71 396.43,-194.71 396.43,-200.71 390.43,-206.71 384.43,-206.71 384.43,-206.71 165.87,-206.71 165.87,-206.71 159.87,-206.71 153.87,-200.71 153.87,-194.71 153.87,-194.71 153.87,-33.71 153.87,-33.71 153.87,-27.71 159.87,-21.71 165.87,-21.71"/>
<text text-anchor="middle" x="275.15" y="-189.41" font-family="Times New Roman,serif" font-size="14.00">Weiterentwicklung</text>
</g>
<!-- a -->
<g id="node1" class="node">
<title>a</title>
<ellipse fill="none" stroke="black" cx="70.93" cy="-47.71" rx="54.93" ry="18"/>
<text text-anchor="middle" x="70.93" y="-42.66" font-family="Times New Roman,serif" font-size="14.00">Basisdesign</text>
</g>
<!-- b -->
<g id="node3" class="node">
<title>b</title>
<ellipse fill="none" stroke="black" cx="275.15" cy="-47.71" rx="113.28" ry="18"/>
<text text-anchor="middle" x="275.15" y="-42.66" font-family="Times New Roman,serif" font-size="14.00">inkrementelle Innovationen</text>
</g>
<!-- a&#45;&gt;b -->
<g id="edge1" class="edge">
<title>a&#45;&gt;b</title>
<path fill="none" stroke="black" d="M126.12,-47.71C133.76,-47.71 141.86,-47.71 150.18,-47.71"/>
<polygon fill="black" stroke="black" points="150.12,-51.21 160.12,-47.71 150.12,-44.21 150.12,-51.21"/>
</g>
<!-- c -->
<g id="node2" class="node">
<title>c</title>
<ellipse fill="none" stroke="black" cx="466.06" cy="-47.71" rx="41.63" ry="18"/>
<text text-anchor="middle" x="466.06" y="-42.66" font-family="Times New Roman,serif" font-size="14.00">Engpass</text>
</g>
<!-- d -->
<g id="node6" class="node">
<title>d</title>
<ellipse fill="none" stroke="black" cx="628.81" cy="-47.71" rx="85.13" ry="18"/>
<text text-anchor="middle" x="628.81" y="-42.66" font-family="Times New Roman,serif" font-size="14.00">Paradigmenwechsel</text>
</g>
<!-- c&#45;&gt;d -->
<g id="edge3" class="edge">
<title>c&#45;&gt;d</title>
<path fill="none" stroke="black" d="M508.04,-47.71C515.52,-47.71 523.61,-47.71 531.93,-47.71"/>
<polygon fill="black" stroke="black" points="531.86,-51.21 541.86,-47.71 531.86,-44.21 531.86,-51.21"/>
</g>
<!-- b&#45;&gt;c -->
<g id="edge2" class="edge">
<title>b&#45;&gt;c</title>
<path fill="none" stroke="black" d="M388.76,-47.71C396.96,-47.71 404.96,-47.71 412.52,-47.71"/>
<polygon fill="black" stroke="black" points="412.47,-51.21 422.47,-47.71 412.47,-44.21 412.47,-51.21"/>
</g>
<!-- b1 -->
<g id="node4" class="node">
<title>b1</title>
<ellipse fill="none" stroke="black" cx="275.15" cy="-101.71" rx="76.43" ry="18"/>
<text text-anchor="middle" x="275.15" y="-96.66" font-family="Times New Roman,serif" font-size="14.00">learning by doing</text>
</g>
<!-- b2 -->
<g id="node5" class="node">
<title>b2</title>
<ellipse fill="none" stroke="black" cx="275.15" cy="-155.71" rx="76.94" ry="18"/>
<text text-anchor="middle" x="275.15" y="-150.66" font-family="Times New Roman,serif" font-size="14.00">implizites Wissen</text>
</g>
<!-- d&#45;&gt;a -->
<g id="edge4" class="edge">
<title>d&#45;&gt;a</title>
<path fill="none" stroke="black" d="M576.88,-33.04C557.85,-28.2 535.93,-23.37 515.68,-20.71 356.24,0.25 312.21,10.37 153.87,-17.71 140.72,-20.04 126.91,-24.33 114.45,-28.94"/>
<polygon fill="black" stroke="black" points="113.36,-25.61 105.31,-32.49 115.9,-32.13 113.36,-25.61"/>
</g>
</g>
</svg>
