<?xml version="1.0" encoding="UTF-8" standalone="no"?>
<!DOCTYPE svg PUBLIC "-//W3C//DTD SVG 1.1//EN"
 "http://www.w3.org/Graphics/SVG/1.1/DTD/svg11.dtd">
<!-- Generated by graphviz version 12.2.1 (20241206.2353)
 -->
<!-- Pages: 1 -->
<svg width="760pt" height="497pt"
 viewBox="0.00 0.00 760.00 497.00" xmlns="http://www.w3.org/2000/svg" xmlns:xlink="http://www.w3.org/1999/xlink">
<g id="graph0" class="graph" transform="scale(1 1) rotate(0) translate(4 493)">
<polygon fill="white" stroke="none" points="-4,4 -4,-493 756,-493 756,4 -4,4"/>
<g id="clust1" class="cluster">
<title>cluster_wirtschaft</title>
<path fill="#0000ff" fill-opacity="0.200000" stroke="#0000ff" stroke-width="1.5" d="M20,-8C20,-8 228,-8 228,-8 234,-8 240,-14 240,-20 240,-20 240,-469 240,-469 240,-475 234,-481 228,-481 228,-481 20,-481 20,-481 14,-481 8,-475 8,-469 8,-469 8,-20 8,-20 8,-14 14,-8 20,-8"/>
<text text-anchor="middle" x="124" y="-463.7" font-family="Times,serif" font-weight="bold" font-size="14.00">Wirtschaftlicher Wandel</text>
</g>
<g id="clust2" class="cluster">
<title>cluster_institutionen</title>
<path fill="#ff0000" fill-opacity="0.200000" stroke="#ff0000" stroke-width="1.5" d="M272,-8C272,-8 480,-8 480,-8 486,-8 492,-14 492,-20 492,-20 492,-469 492,-469 492,-475 486,-481 480,-481 480,-481 272,-481 272,-481 266,-481 260,-475 260,-469 260,-469 260,-20 260,-20 260,-14 266,-8 272,-8"/>
<text text-anchor="middle" x="376" y="-463.7" font-family="Times,serif" font-weight="bold" font-size="14.00">Institutioneller Wandel</text>
</g>
<g id="clust3" class="cluster">
<title>cluster_governance</title>
<path fill="#00ff00" fill-opacity="0.200000" stroke="#00ff00" stroke-width="1.5" d="M524,-8C524,-8 732,-8 732,-8 738,-8 744,-14 744,-20 744,-20 744,-469 744,-469 744,-475 738,-481 732,-481 732,-481 524,-481 524,-481 518,-481 512,-475 512,-469 512,-469 512,-20 512,-20 512,-14 518,-8 524,-8"/>
<text text-anchor="middle" x="628" y="-463.7" font-family="Times,serif" font-weight="bold" font-size="14.00">Global Governance</text>
</g>
<!-- a1 -->
<g id="node1" class="node">
<title>a1</title>
<text text-anchor="start" x="24" y="-46.95" font-family="Times New Roman,serif" font-size="14.00">Technologiepfade</text>
</g>
<!-- b1 -->
<g id="node6" class="node">
<title>b1</title>
<text text-anchor="start" x="276" y="-46.95" font-family="Times New Roman,serif" font-size="14.00">gesteuert vs. evolutionär</text>
</g>
<!-- a1&#45;&gt;b1 -->
<!-- a2 -->
<g id="node2" class="node">
<title>a2</title>
<text text-anchor="start" x="24" y="-136.95" font-family="Times New Roman,serif" font-size="14.00">Schumpeterscher Wettbewerb</text>
</g>
<!-- a3 -->
<g id="node3" class="node">
<title>a3</title>
<text text-anchor="start" x="24" y="-226.95" font-family="Times New Roman,serif" font-size="14.00">Strukturwandel</text>
</g>
<!-- a4 -->
<g id="node4" class="node">
<title>a4</title>
<text text-anchor="start" x="24" y="-316.95" font-family="Times New Roman,serif" font-size="14.00">Permanente Anpassung</text>
</g>
<!-- cluster_wirtschaft_placeholder_4 -->
<!-- c1 -->
<g id="node11" class="node">
<title>c1</title>
<text text-anchor="start" x="528" y="-46.95" font-family="Times New Roman,serif" font-size="14.00">Internationale Koordination</text>
</g>
<!-- b1&#45;&gt;c1 -->
<!-- b2 -->
<g id="node7" class="node">
<title>b2</title>
<text text-anchor="start" x="276" y="-136.95" font-family="Times New Roman,serif" font-size="14.00">graduell vs. drastisch</text>
</g>
<!-- b3 -->
<g id="node8" class="node">
<title>b3</title>
<text text-anchor="start" x="276" y="-226.95" font-family="Times New Roman,serif" font-size="14.00"> Reformblockaden</text>
</g>
<!-- cluster_institutionen_placeholder_3 -->
<!-- cluster_institutionen_placeholder_4 -->
<!-- c2 -->
<g id="node12" class="node">
<title>c2</title>
<text text-anchor="start" x="528" y="-145.2" font-family="Times New Roman,serif" font-size="14.00">Kooperationsgeflecht</text>
<text text-anchor="start" x="528" y="-128.7" font-family="Times New Roman,serif" font-size="14.00">statt zentraler Steuerung</text>
</g>
<!-- c3 -->
<g id="node13" class="node">
<title>c3</title>
<text text-anchor="start" x="528" y="-235.2" font-family="Times New Roman,serif" font-size="14.00">Liberale Weltordnung vs. </text>
<text text-anchor="start" x="528" y="-218.7" font-family="Times New Roman,serif" font-size="14.00"> regelbasierte Ordnung</text>
</g>
<!-- c4 -->
<g id="node14" class="node">
<title>c4</title>
<text text-anchor="start" x="528" y="-325.2" font-family="Times New Roman,serif" font-size="14.00">Erosion vs.</text>
<text text-anchor="start" x="528" y="-308.7" font-family="Times New Roman,serif" font-size="14.00">Neuordnung</text>
</g>
<!-- C5 -->
<g id="node15" class="node">
<title>C5</title>
<text text-anchor="start" x="528" y="-415.2" font-family="Times New Roman,serif" font-size="14.00">Klimaschutzpolitik, Migration, </text>
<text text-anchor="start" x="528" y="-398.7" font-family="Times New Roman,serif" font-size="14.00">KI, internationale Sicherheit, ...</text>
</g>
</g>
</svg>
