<?xml version="1.0" encoding="UTF-8" standalone="no"?>
<!DOCTYPE svg PUBLIC "-//W3C//DTD SVG 1.1//EN"
 "http://www.w3.org/Graphics/SVG/1.1/DTD/svg11.dtd">
<!-- Generated by graphviz version 12.2.1 (20241206.2353)
 -->
<!-- Title: satelliten Pages: 1 -->
<svg width="617pt" height="539pt"
 viewBox="0.00 0.00 617.08 538.62" xmlns="http://www.w3.org/2000/svg" xmlns:xlink="http://www.w3.org/1999/xlink">
<g id="graph0" class="graph" transform="scale(1 1) rotate(0) translate(4 534.62)">
<title>satelliten</title>
<polygon fill="white" stroke="none" points="-4,4 -4,-534.62 613.08,-534.62 613.08,4 -4,4"/>
<!-- Zentrum -->
<g id="node1" class="node">
<title>Zentrum</title>
<ellipse fill="none" stroke="black" cx="297.14" cy="-275.4" rx="72" ry="72"/>
<text text-anchor="middle" x="297.14" y="-267.65" font-family="Times,serif" font-weight="bold" font-size="20.00">Ideen</text>
</g>
<!-- A -->
<g id="node2" class="node">
<title>A</title>
<ellipse fill="none" stroke="black" cx="548.98" cy="-275.4" rx="60.1" ry="28.99"/>
<text text-anchor="middle" x="548.98" y="-278.6" font-family="Times New Roman,serif" font-size="14.00">Reduzieren</text>
<text text-anchor="middle" x="548.98" y="-262.1" font-family="Times New Roman,serif" font-size="14.00">Unsicherheit</text>
</g>
<!-- Zentrum&#45;&gt;A -->
<g id="edge1" class="edge">
<title>Zentrum&#45;&gt;A</title>
<path fill="none" stroke="black" d="M369.31,-275.4C403.26,-275.4 443.63,-275.4 477.49,-275.4"/>
<polygon fill="black" stroke="black" points="477.2,-278.9 487.2,-275.4 477.2,-271.9 477.2,-278.9"/>
</g>
<!-- B -->
<g id="node3" class="node">
<title>B</title>
<ellipse fill="none" stroke="black" cx="407.77" cy="-501.63" rx="80.26" ry="28.99"/>
<text text-anchor="middle" x="407.77" y="-504.83" font-family="Times New Roman,serif" font-size="14.00">Fördern</text>
<text text-anchor="middle" x="407.77" y="-488.33" font-family="Times New Roman,serif" font-size="14.00">Koalitionsbildung</text>
</g>
<!-- Zentrum&#45;&gt;B -->
<g id="edge2" class="edge">
<title>Zentrum&#45;&gt;B</title>
<path fill="none" stroke="black" d="M328.84,-340.22C348.15,-379.69 372.17,-428.82 388.61,-462.44"/>
<polygon fill="black" stroke="black" points="385.46,-463.97 393,-471.42 391.75,-460.9 385.46,-463.97"/>
</g>
<!-- C -->
<g id="node4" class="node">
<title>C</title>
<ellipse fill="none" stroke="black" cx="107.83" cy="-441.48" rx="107.83" ry="40.66"/>
<text text-anchor="middle" x="107.83" y="-452.93" font-family="Times New Roman,serif" font-size="14.00">Ermöglichen das</text>
<text text-anchor="middle" x="107.83" y="-436.43" font-family="Times New Roman,serif" font-size="14.00">Infragestellen</text>
<text text-anchor="middle" x="107.83" y="-419.93" font-family="Times New Roman,serif" font-size="14.00">bestehender Institutionen</text>
</g>
<!-- Zentrum&#45;&gt;C -->
<g id="edge3" class="edge">
<title>Zentrum&#45;&gt;C</title>
<path fill="none" stroke="black" d="M242.89,-322.99C216.59,-346.07 185.15,-373.64 159.23,-396.38"/>
<polygon fill="black" stroke="black" points="157.02,-393.67 151.81,-402.9 161.63,-398.94 157.02,-393.67"/>
</g>
<!-- D -->
<g id="node5" class="node">
<title>D</title>
<ellipse fill="none" stroke="black" cx="92.66" cy="-128.4" rx="89.8" ry="40.66"/>
<text text-anchor="middle" x="92.66" y="-139.85" font-family="Times New Roman,serif" font-size="14.00">Bieten Ressourcen</text>
<text text-anchor="middle" x="92.66" y="-123.35" font-family="Times New Roman,serif" font-size="14.00">für die Konstruktion</text>
<text text-anchor="middle" x="92.66" y="-106.85" font-family="Times New Roman,serif" font-size="14.00">neuer Institutionen</text>
</g>
<!-- Zentrum&#45;&gt;D -->
<g id="edge4" class="edge">
<title>Zentrum&#45;&gt;D</title>
<path fill="none" stroke="black" d="M238.54,-233.27C210.76,-213.3 177.69,-189.53 150.07,-169.67"/>
<polygon fill="black" stroke="black" points="152.31,-166.98 142.15,-163.98 148.23,-172.66 152.31,-166.98"/>
</g>
<!-- E -->
<g id="node6" class="node">
<title>E</title>
<ellipse fill="none" stroke="black" cx="388.35" cy="-40.66" rx="101.47" ry="40.66"/>
<text text-anchor="middle" x="388.35" y="-52.11" font-family="Times New Roman,serif" font-size="14.00">Koordinieren</text>
<text text-anchor="middle" x="388.35" y="-35.61" font-family="Times New Roman,serif" font-size="14.00">Erwartungen</text>
<text text-anchor="middle" x="388.35" y="-19.11" font-family="Times New Roman,serif" font-size="14.00">reproduzieren Stabilität</text>
</g>
<!-- Zentrum&#45;&gt;E -->
<g id="edge5" class="edge">
<title>Zentrum&#45;&gt;E</title>
<path fill="none" stroke="black" d="M323.28,-208.13C337.67,-171.09 355.25,-125.85 368.5,-91.73"/>
<polygon fill="black" stroke="black" points="371.74,-93.07 372.1,-82.48 365.21,-90.54 371.74,-93.07"/>
</g>
</g>
</svg>
