<?xml version="1.0" encoding="UTF-8" standalone="no"?>
<!DOCTYPE svg PUBLIC "-//W3C//DTD SVG 1.1//EN"
 "http://www.w3.org/Graphics/SVG/1.1/DTD/svg11.dtd">
<!-- Generated by graphviz version 12.2.1 (20241206.2353)
 -->
<!-- Pages: 1 -->
<svg width="1084pt" height="365pt"
 viewBox="0.00 0.00 1084.00 365.00" xmlns="http://www.w3.org/2000/svg" xmlns:xlink="http://www.w3.org/1999/xlink">
<g id="graph0" class="graph" transform="scale(1 1) rotate(0) translate(4 361)">
<polygon fill="white" stroke="none" points="-4,4 -4,-361 1080,-361 1080,4 -4,4"/>
<g id="clust1" class="cluster">
<title>cluster_ziel</title>
<path fill="#efefef" stroke="blue" stroke-width="0" d="M20,-10C20,-10 192,-10 192,-10 198,-10 204,-16 204,-22 204,-22 204,-337 204,-337 204,-343 198,-349 192,-349 192,-349 20,-349 20,-349 14,-349 8,-343 8,-337 8,-337 8,-22 8,-22 8,-16 14,-10 20,-10"/>
<text text-anchor="middle" x="106" y="-331.7" font-family="Times,serif" font-weight="bold" font-size="14.00">Konvention</text>
</g>
<g id="clust2" class="cluster">
<title>cluster_Restriktion</title>
<path fill="#efefef" stroke="blue" stroke-width="0" d="M236,-8C236,-8 408,-8 408,-8 414,-8 420,-14 420,-20 420,-20 420,-335 420,-335 420,-341 414,-347 408,-347 408,-347 236,-347 236,-347 230,-347 224,-341 224,-335 224,-335 224,-20 224,-20 224,-14 230,-8 236,-8"/>
<text text-anchor="middle" x="322" y="-329.7" font-family="Times,serif" font-weight="bold" font-size="14.00">Ethische Regel</text>
</g>
<g id="clust3" class="cluster">
<title>cluster_Handlung</title>
<path fill="#efefef" stroke="blue" stroke-width="0" d="M452,-10C452,-10 624,-10 624,-10 630,-10 636,-16 636,-22 636,-22 636,-333 636,-333 636,-339 630,-345 624,-345 624,-345 452,-345 452,-345 446,-345 440,-339 440,-333 440,-333 440,-22 440,-22 440,-16 446,-10 452,-10"/>
<text text-anchor="middle" x="538" y="-327.7" font-family="Times,serif" font-weight="bold" font-size="14.00">Sitte</text>
</g>
<g id="clust4" class="cluster">
<title>cluster_d</title>
<path fill="#efefef" stroke="blue" stroke-width="0" d="M668,-8C668,-8 840,-8 840,-8 846,-8 852,-14 852,-20 852,-20 852,-335 852,-335 852,-341 846,-347 840,-347 840,-347 668,-347 668,-347 662,-347 656,-341 656,-335 656,-335 656,-20 656,-20 656,-14 662,-8 668,-8"/>
<text text-anchor="middle" x="754" y="-329.7" font-family="Times,serif" font-weight="bold" font-size="14.00">Formelle private Regel</text>
</g>
<g id="clust5" class="cluster">
<title>cluster_e</title>
<path fill="#efefef" stroke="blue" stroke-width="0" d="M884,-10C884,-10 1056,-10 1056,-10 1062,-10 1068,-16 1068,-22 1068,-22 1068,-333 1068,-333 1068,-339 1062,-345 1056,-345 1056,-345 884,-345 884,-345 878,-345 872,-339 872,-333 872,-333 872,-22 872,-22 872,-16 878,-10 884,-10"/>
<text text-anchor="middle" x="970" y="-327.7" font-family="Times,serif" font-weight="bold" font-size="14.00">Regel positiven Rechts</text>
</g>
<!-- a1 -->
<g id="node1" class="node">
<title>a1</title>
<text text-anchor="start" x="24" y="-80.45" font-family="Times New Roman,serif" font-size="14.00">Variante A:</text>
<text text-anchor="start" x="24" y="-63.95" font-family="Times New Roman,serif" font-size="14.00"> intentionale Änderung</text>
<text text-anchor="start" x="24" y="-47.45" font-family="Times New Roman,serif" font-size="14.00"> (Programmiersprache)</text>
</g>
<!-- b1 -->
<g id="node4" class="node">
<title>b1</title>
<text text-anchor="start" x="240" y="-88.7" font-family="Times New Roman,serif" font-size="14.00">Änderung der</text>
<text text-anchor="start" x="240" y="-72.2" font-family="Times New Roman,serif" font-size="14.00"> &#45; Werte</text>
<text text-anchor="start" x="240" y="-55.7" font-family="Times New Roman,serif" font-size="14.00"> &#45; Restriktionen</text>
<text text-anchor="start" x="240" y="-39.2" font-family="Times New Roman,serif" font-size="14.00"> &#45; Informationen</text>
</g>
<!-- a1&#45;&gt;b1 -->
<!-- a2 -->
<g id="node2" class="node">
<title>a2</title>
<text text-anchor="start" x="24" y="-194.7" font-family="Times New Roman,serif" font-size="14.00">Variante B:</text>
<text text-anchor="start" x="24" y="-178.2" font-family="Times New Roman,serif" font-size="14.00"> Evolutionäre, inkre&#45;</text>
<text text-anchor="start" x="24" y="-161.7" font-family="Times New Roman,serif" font-size="14.00"> mentelle Änderung</text>
<text text-anchor="start" x="24" y="-145.2" font-family="Times New Roman,serif" font-size="14.00"> (natürliche Sprache)</text>
</g>
<!-- cluster_ziel_placeholder_2 -->
<!-- c1 -->
<g id="node7" class="node">
<title>c1</title>
<text text-anchor="start" x="456" y="-72.2" font-family="Times New Roman,serif" font-size="14.00">Änderung zunächst in </text>
<text text-anchor="start" x="456" y="-55.7" font-family="Times New Roman,serif" font-size="14.00"> Subpopulationen</text>
</g>
<!-- b1&#45;&gt;c1 -->
<!-- cluster_Restriktion_placeholder_1 -->
<!-- cluster_Restriktion_placeholder_2 -->
<!-- d1 -->
<g id="node10" class="node">
<title>d1</title>
<text text-anchor="start" x="672" y="-88.95" font-family="Times New Roman,serif" font-size="14.00">Änderung durch</text>
<text text-anchor="start" x="672" y="-72.45" font-family="Times New Roman,serif" font-size="14.00"> zuständige Gremien</text>
<text text-anchor="start" x="672" y="-55.95" font-family="Times New Roman,serif" font-size="14.00"> &#45;Ziele</text>
<text text-anchor="start" x="672" y="-39.45" font-family="Times New Roman,serif" font-size="14.00"> &#45;Restriktionen</text>
<text text-anchor="start" x="672" y="-22.95" font-family="Times New Roman,serif" font-size="14.00">&#45;Informationen</text>
</g>
<!-- c1&#45;&gt;d1 -->
<!-- c2 -->
<g id="node8" class="node">
<title>c2</title>
<text text-anchor="start" x="456" y="-168.2" font-family="Times New Roman,serif" font-size="14.00">Eventuell Kritische</text>
<text text-anchor="start" x="456" y="-151.7" font-family="Times New Roman,serif" font-size="14.00"> &#45;Masse&#45;Phänomen</text>
</g>
<!-- c3 -->
<g id="node9" class="node">
<title>c3</title>
<text text-anchor="start" x="456" y="-272.2" font-family="Times New Roman,serif" font-size="14.00">Imitation vs. bewusste</text>
<text text-anchor="start" x="456" y="-255.7" font-family="Times New Roman,serif" font-size="14.00"> Werteänderung</text>
</g>
<!-- e1 -->
<g id="node13" class="node">
<title>e1</title>
<text text-anchor="start" x="888" y="-55.95" font-family="Times New Roman,serif" font-size="14.00">Mehrheitswille</text>
</g>
<!-- d1&#45;&gt;e1 -->
<!-- cluster_d_placeholder_1 -->
<!-- cluster_d_placeholder_2 -->
<!-- e2 -->
<g id="node14" class="node">
<title>e2</title>
<text text-anchor="start" x="888" y="-159.95" font-family="Times New Roman,serif" font-size="14.00">Politische Ökonomie</text>
</g>
<!-- e3 -->
<g id="node15" class="node">
<title>e3</title>
<text text-anchor="start" x="888" y="-272.2" font-family="Times New Roman,serif" font-size="14.00">Folgt typischerweise</text>
<text text-anchor="start" x="888" y="-255.7" font-family="Times New Roman,serif" font-size="14.00"> Änderung der Sitten</text>
</g>
</g>
</svg>
