<?xml version="1.0" encoding="UTF-8" standalone="no"?>
<!DOCTYPE svg PUBLIC "-//W3C//DTD SVG 1.1//EN"
 "http://www.w3.org/Graphics/SVG/1.1/DTD/svg11.dtd">
<!-- Generated by graphviz version 12.2.1 (20241206.2353)
 -->
<!-- Title: Hegemon_Dilemma Pages: 1 -->
<svg width="642pt" height="489pt"
 viewBox="0.00 0.00 641.91 489.08" xmlns="http://www.w3.org/2000/svg" xmlns:xlink="http://www.w3.org/1999/xlink">
<g id="graph0" class="graph" transform="scale(1 1) rotate(0) translate(4 485.08)">
<title>Hegemon_Dilemma</title>
<polygon fill="white" stroke="none" points="-4,4 -4,-485.08 637.91,-485.08 637.91,4 -4,4"/>
<g id="clust1" class="cluster">
<title>cluster_legitimacy</title>
<polygon fill="none" stroke="#2e7d32" stroke-dasharray="5,2" points="8,-120.58 8,-403.08 168,-403.08 168,-120.58 8,-120.58"/>
<text text-anchor="middle" x="88" y="-385.78" font-family="Times New Roman,serif" font-size="14.00">Pfad der Legitimität</text>
</g>
<g id="clust2" class="cluster">
<title>cluster_power</title>
<polygon fill="none" stroke="#c62828" stroke-dasharray="5,2" points="256,-120.58 256,-403.08 419,-403.08 419,-120.58 256,-120.58"/>
<text text-anchor="middle" x="337.5" y="-385.78" font-family="Times New Roman,serif" font-size="14.00">Pfad der Machtbehauptung</text>
</g>
<!-- H -->
<g id="node1" class="node">
<title>H</title>
<path fill="#e3f2fd" stroke="black" stroke-width="2" d="M261.75,-481.08C261.75,-481.08 208.25,-481.08 208.25,-481.08 202.25,-481.08 196.25,-475.08 196.25,-469.08 196.25,-469.08 196.25,-457.08 196.25,-457.08 196.25,-451.08 202.25,-445.08 208.25,-445.08 208.25,-445.08 261.75,-445.08 261.75,-445.08 267.75,-445.08 273.75,-451.08 273.75,-457.08 273.75,-457.08 273.75,-469.08 273.75,-469.08 273.75,-475.08 267.75,-481.08 261.75,-481.08"/>
<text text-anchor="middle" x="235" y="-466.13" font-family="Helvetica,sans-Serif" font-size="11.00">HEGEMON</text>
<text text-anchor="middle" x="235" y="-452.63" font-family="Helvetica,sans-Serif" font-size="11.00">(Großmacht)</text>
</g>
<!-- RL -->
<g id="node2" class="node">
<title>RL</title>
<path fill="#c8e6c9" stroke="black" d="M140.25,-370.58C140.25,-370.58 29.75,-370.58 29.75,-370.58 23.75,-370.58 17.75,-364.58 17.75,-358.58 17.75,-358.58 17.75,-346.58 17.75,-346.58 17.75,-340.58 23.75,-334.58 29.75,-334.58 29.75,-334.58 140.25,-334.58 140.25,-334.58 146.25,-334.58 152.25,-340.58 152.25,-346.58 152.25,-346.58 152.25,-358.58 152.25,-358.58 152.25,-364.58 146.25,-370.58 140.25,-370.58"/>
<text text-anchor="middle" x="85" y="-355.63" font-family="Helvetica,sans-Serif" font-size="11.00">Selbstbindung an</text>
<text text-anchor="middle" x="85" y="-342.13" font-family="Helvetica,sans-Serif" font-size="11.00">Völkerrechtliche Normen</text>
</g>
<!-- H&#45;&gt;RL -->
<g id="edge1" class="edge">
<title>H&#45;&gt;RL</title>
<path fill="none" stroke="black" d="M210.23,-444.16C185.07,-425.96 145.96,-397.67 118.14,-377.55"/>
<polygon fill="black" stroke="black" points="120.19,-374.71 110.04,-371.69 116.09,-380.39 120.19,-374.71"/>
</g>
<!-- HF -->
<g id="node5" class="node">
<title>HF</title>
<path fill="#ffcdd2" stroke="black" d="M377.5,-370.58C377.5,-370.58 298.5,-370.58 298.5,-370.58 292.5,-370.58 286.5,-364.58 286.5,-358.58 286.5,-358.58 286.5,-346.58 286.5,-346.58 286.5,-340.58 292.5,-334.58 298.5,-334.58 298.5,-334.58 377.5,-334.58 377.5,-334.58 383.5,-334.58 389.5,-340.58 389.5,-346.58 389.5,-346.58 389.5,-358.58 389.5,-358.58 389.5,-364.58 383.5,-370.58 377.5,-370.58"/>
<text text-anchor="middle" x="338" y="-355.63" font-family="Helvetica,sans-Serif" font-size="11.00">Uneingeschränkte</text>
<text text-anchor="middle" x="338" y="-342.13" font-family="Helvetica,sans-Serif" font-size="11.00">Handlungsfreiheit</text>
</g>
<!-- H&#45;&gt;HF -->
<g id="edge5" class="edge">
<title>H&#45;&gt;HF</title>
<path fill="none" stroke="black" d="M252.01,-444.16C268.83,-426.44 294.74,-399.14 313.73,-379.15"/>
<polygon fill="black" stroke="black" points="316.26,-381.56 320.61,-371.9 311.18,-376.74 316.26,-381.56"/>
</g>
<!-- STA -->
<g id="node3" class="node">
<title>STA</title>
<path fill="#c8e6c9" stroke="black" d="M148.12,-267.58C148.12,-267.58 27.88,-267.58 27.88,-267.58 21.88,-267.58 15.88,-261.58 15.88,-255.58 15.88,-255.58 15.88,-243.58 15.88,-243.58 15.88,-237.58 21.87,-231.58 27.87,-231.58 27.87,-231.58 148.12,-231.58 148.12,-231.58 154.12,-231.58 160.12,-237.58 160.12,-243.58 160.12,-243.58 160.12,-255.58 160.12,-255.58 160.12,-261.58 154.12,-267.58 148.12,-267.58"/>
<text text-anchor="middle" x="88" y="-252.63" font-family="Helvetica,sans-Serif" font-size="11.00">Internationale Akzeptanz &amp;</text>
<text text-anchor="middle" x="88" y="-239.13" font-family="Helvetica,sans-Serif" font-size="11.00">Berechenbarkeit</text>
</g>
<!-- RL&#45;&gt;STA -->
<g id="edge2" class="edge">
<title>RL&#45;&gt;STA</title>
<path fill="none" stroke="black" d="M85.51,-334.44C85.96,-319.35 86.62,-297.07 87.15,-279.26"/>
<polygon fill="black" stroke="black" points="90.65,-279.41 87.44,-269.31 83.65,-279.2 90.65,-279.41"/>
</g>
<!-- RL&#45;&gt;HF -->
<g id="edge10" class="edge">
<title>RL&#45;&gt;HF</title>
<path fill="none" stroke="#1565c0" stroke-width="2" d="M165.33,-352.58C200.29,-352.58 240.71,-352.58 273.65,-352.58"/>
<polygon fill="#1565c0" stroke="#1565c0" stroke-width="2" points="165.49,-349.08 155.49,-352.58 165.49,-356.08 165.49,-349.08"/>
<polygon fill="#1565c0" stroke="#1565c0" stroke-width="2" points="273.31,-356.08 283.31,-352.58 273.31,-349.08 273.31,-356.08"/>
<text text-anchor="middle" x="219.38" y="-358.78" font-family="Times New Roman,serif" font-size="14.00">ANTINOMIE</text>
</g>
<!-- ORD -->
<g id="node4" class="node">
<title>ORD</title>
<path fill="#a5d6a7" stroke="black" d="M140.75,-164.58C140.75,-164.58 51.25,-164.58 51.25,-164.58 45.25,-164.58 39.25,-158.58 39.25,-152.58 39.25,-152.58 39.25,-140.58 39.25,-140.58 39.25,-134.58 45.25,-128.58 51.25,-128.58 51.25,-128.58 140.75,-128.58 140.75,-128.58 146.75,-128.58 152.75,-134.58 152.75,-140.58 152.75,-140.58 152.75,-152.58 152.75,-152.58 152.75,-158.58 146.75,-164.58 140.75,-164.58"/>
<text text-anchor="middle" x="96" y="-142.88" font-family="Helvetica,sans-Serif" font-size="11.00">Stabile Weltordnung</text>
</g>
<!-- STA&#45;&gt;ORD -->
<g id="edge3" class="edge">
<title>STA&#45;&gt;ORD</title>
<path fill="none" stroke="black" d="M89.36,-231.44C90.55,-216.35 92.32,-194.07 93.73,-176.26"/>
<polygon fill="black" stroke="black" points="97.22,-176.55 94.52,-166.3 90.24,-175.99 97.22,-176.55"/>
</g>
<!-- KRI -->
<g id="node8" class="node">
<title>KRI</title>
<path fill="#ffab91" stroke="black" d="M318.48,-27.09C318.48,-27.09 318.48,-34.49 318.48,-34.49 318.48,-38.19 314.92,-42.88 311.36,-43.88 311.36,-43.88 269.67,-55.58 269.67,-55.58 266.11,-56.58 258.85,-57.58 255.15,-57.58 255.15,-57.58 190.85,-57.58 190.85,-57.58 187.15,-57.58 179.89,-56.58 176.33,-55.58 176.33,-55.58 134.64,-43.88 134.64,-43.88 131.08,-42.88 127.52,-38.19 127.52,-34.49 127.52,-34.49 127.52,-27.09 127.52,-27.09 127.52,-23.39 131.08,-18.69 134.64,-17.69 134.64,-17.69 176.33,-6 176.33,-6 179.89,-5 187.15,-4 190.85,-4 190.85,-4 255.15,-4 255.15,-4 258.85,-4 266.11,-5 269.67,-6 269.67,-6 311.36,-17.69 311.36,-17.69 314.92,-18.69 318.48,-23.39 318.48,-27.09"/>
<path fill="none" stroke="black" d="M322.48,-26.08C322.48,-26.08 322.48,-35.5 322.48,-35.5 322.48,-40.21 317.95,-46.19 313.41,-47.46 313.41,-47.46 272.17,-59.03 272.17,-59.03 267.63,-60.3 258.39,-61.58 253.68,-61.58 253.68,-61.58 192.32,-61.58 192.32,-61.58 187.61,-61.58 178.37,-60.3 173.83,-59.03 173.83,-59.03 132.59,-47.46 132.59,-47.46 128.05,-46.19 123.52,-40.21 123.52,-35.5 123.52,-35.5 123.52,-26.08 123.52,-26.08 123.52,-21.37 128.05,-15.39 132.59,-14.12 132.59,-14.12 173.83,-2.54 173.83,-2.54 178.37,-1.27 187.61,0 192.32,0 192.32,0 253.68,0 253.68,0 258.39,0 267.63,-1.27 272.17,-2.54 272.17,-2.54 313.41,-14.12 313.41,-14.12 317.95,-15.39 322.48,-21.37 322.48,-26.08"/>
<text text-anchor="middle" x="223" y="-33.84" font-family="Helvetica,sans-Serif" font-size="11.00">LEGITIMITÄTSKRISE</text>
<text text-anchor="middle" x="223" y="-20.34" font-family="Helvetica,sans-Serif" font-size="11.00">(Systemversagen)</text>
</g>
<!-- ORD&#45;&gt;KRI -->
<g id="edge4" class="edge">
<title>ORD&#45;&gt;KRI</title>
<path fill="none" stroke="black" stroke-dasharray="1,5" d="M115.29,-128.29C132.7,-112.69 158.92,-89.2 181.13,-69.3"/>
<polygon fill="black" stroke="black" points="183.18,-72.17 188.29,-62.89 178.51,-66.95 183.18,-72.17"/>
</g>
<!-- INS -->
<g id="node6" class="node">
<title>INS</title>
<path fill="#ffcdd2" stroke="black" d="M368,-267.58C368,-267.58 286,-267.58 286,-267.58 280,-267.58 274,-261.58 274,-255.58 274,-255.58 274,-243.58 274,-243.58 274,-237.58 280,-231.58 286,-231.58 286,-231.58 368,-231.58 368,-231.58 374,-231.58 380,-237.58 380,-243.58 380,-243.58 380,-255.58 380,-255.58 380,-261.58 374,-267.58 368,-267.58"/>
<text text-anchor="middle" x="327" y="-252.63" font-family="Helvetica,sans-Serif" font-size="11.00">Selektive</text>
<text text-anchor="middle" x="327" y="-239.13" font-family="Helvetica,sans-Serif" font-size="11.00">Rechtsanwendung</text>
</g>
<!-- HF&#45;&gt;INS -->
<g id="edge6" class="edge">
<title>HF&#45;&gt;INS</title>
<path fill="none" stroke="black" d="M336.13,-334.44C334.48,-319.28 332.04,-296.85 330.1,-279"/>
<polygon fill="black" stroke="black" points="333.6,-278.86 329.04,-269.3 326.64,-279.62 333.6,-278.86"/>
</g>
<!-- ETH -->
<g id="node7" class="node">
<title>ETH</title>
<path fill="#ef9a9a" stroke="black" d="M343.25,-164.58C343.25,-164.58 280.75,-164.58 280.75,-164.58 274.75,-164.58 268.75,-158.58 268.75,-152.58 268.75,-152.58 268.75,-140.58 268.75,-140.58 268.75,-134.58 274.75,-128.58 280.75,-128.58 280.75,-128.58 343.25,-128.58 343.25,-128.58 349.25,-128.58 355.25,-134.58 355.25,-140.58 355.25,-140.58 355.25,-152.58 355.25,-152.58 355.25,-158.58 349.25,-164.58 343.25,-164.58"/>
<text text-anchor="middle" x="312" y="-149.63" font-family="Helvetica,sans-Serif" font-size="11.00">Ethisierung als</text>
<text text-anchor="middle" x="312" y="-136.13" font-family="Helvetica,sans-Serif" font-size="11.00">Deckmantel</text>
</g>
<!-- INS&#45;&gt;ETH -->
<g id="edge7" class="edge">
<title>INS&#45;&gt;ETH</title>
<path fill="none" stroke="black" d="M324.46,-231.44C322.2,-216.28 318.87,-193.85 316.22,-176"/>
<polygon fill="black" stroke="black" points="319.71,-175.67 314.78,-166.29 312.79,-176.7 319.71,-175.67"/>
</g>
<!-- ETH&#45;&gt;KRI -->
<g id="edge8" class="edge">
<title>ETH&#45;&gt;KRI</title>
<path fill="none" stroke="black" d="M298.48,-128.29C286.56,-113.05 268.75,-90.28 253.42,-70.68"/>
<polygon fill="black" stroke="black" points="256.21,-68.56 247.29,-62.84 250.69,-72.88 256.21,-68.56"/>
</g>
<!-- KRI&#45;&gt;H -->
<g id="edge9" class="edge">
<title>KRI:w&#45;&gt;H:w</title>
<path fill="none" stroke="#546e7a" stroke-dasharray="5,2" d="M122.1,-30.79C108.41,-30.79 114.1,-51.26 123.1,-61.58 167.75,-112.76 378.72,-69.07 423,-120.58 504.9,-215.85 513.71,-306.79 433,-403.08 364.35,-484.97 267.14,-365.11 196.25,-445.08 194.51,-447.04 192.94,-449.66 191.9,-452.28"/>
<polygon fill="#546e7a" stroke="#546e7a" points="188.49,-453.12 194.8,-461.63 195.18,-451.04 188.49,-453.12"/>
<text text-anchor="middle" x="561.54" y="-252.78" font-family="Times New Roman,serif" font-size="14.00" fill="#546e7a"> &#160;&#160;Rückkopplung:</text>
<text text-anchor="middle" x="561.54" y="-236.28" font-family="Times New Roman,serif" font-size="14.00" fill="#546e7a"> &#160;&#160;Glaubwürdigkeitsverlust</text>
</g>
</g>
</svg>
