<?xml version="1.0" encoding="UTF-8" standalone="no"?>
<!DOCTYPE svg PUBLIC "-//W3C//DTD SVG 1.1//EN"
 "http://www.w3.org/Graphics/SVG/1.1/DTD/svg11.dtd">
<!-- Generated by graphviz version 12.2.1 (20241206.2353)
 -->
<!-- Title: Voelkerrecht_Wandel Pages: 1 -->
<svg width="819pt" height="601pt"
 viewBox="0.00 0.00 819.50 600.63" xmlns="http://www.w3.org/2000/svg" xmlns:xlink="http://www.w3.org/1999/xlink">
<g id="graph0" class="graph" transform="scale(1 1) rotate(0) translate(4 596.63)">
<title>Voelkerrecht_Wandel</title>
<polygon fill="white" stroke="none" points="-4,4 -4,-596.63 815.5,-596.63 815.5,4 -4,4"/>
<g id="clust1" class="cluster">
<title>cluster_koordination</title>
<polygon fill="none" stroke="#546e7a" stroke-dasharray="1,5" points="82.5,-507.38 82.5,-584.63 467.5,-584.63 467.5,-507.38 82.5,-507.38"/>
<text text-anchor="middle" x="275" y="-567.33" font-family="Arial-Bold" font-size="14.00">1. Klassisches Koordinationsrecht</text>
</g>
<g id="clust2" class="cluster">
<title>cluster_kooperation</title>
<polygon fill="none" stroke="#2e7d32" stroke-dasharray="1,5" points="89.5,-142.63 89.5,-314.88 445.5,-314.88 445.5,-142.63 89.5,-142.63"/>
<text text-anchor="middle" x="267.5" y="-297.58" font-family="Arial-Bold" font-size="14.00">2. Modernes Kooperationsrecht</text>
</g>
<!-- SOUV -->
<g id="node1" class="node">
<title>SOUV</title>
<path fill="#eceff1" stroke="black" d="M230,-551.38C230,-551.38 103,-551.38 103,-551.38 97,-551.38 91,-545.38 91,-539.38 91,-539.38 91,-527.38 91,-527.38 91,-521.38 97,-515.38 103,-515.38 103,-515.38 230,-515.38 230,-515.38 236,-515.38 242,-521.38 242,-527.38 242,-527.38 242,-539.38 242,-539.38 242,-545.38 236,-551.38 230,-551.38"/>
<text text-anchor="middle" x="166.5" y="-536.43" font-family="Arial" font-size="11.00">Souveräne Gleichheit</text>
<text text-anchor="middle" x="166.5" y="-522.93" font-family="Arial" font-size="11.00">(Staatliche Eigeninteressen)</text>
</g>
<!-- TRANS -->
<g id="node3" class="node">
<title>TRANS</title>
<path fill="#fff59d" stroke="black" d="M155.89,-453.33C155.89,-453.33 11.61,-415.43 11.61,-415.43 5.8,-413.9 5.8,-410.85 11.61,-409.33 11.61,-409.33 155.89,-371.43 155.89,-371.43 161.7,-369.9 173.3,-369.9 179.11,-371.43 179.11,-371.43 323.39,-409.33 323.39,-409.33 329.2,-410.85 329.2,-413.9 323.39,-415.43 323.39,-415.43 179.11,-453.33 179.11,-453.33 173.3,-454.85 161.7,-454.85 155.89,-453.33"/>
<text text-anchor="middle" x="167.5" y="-420.88" font-family="Arial" font-size="10.00">TRANSFORMATION</text>
<text text-anchor="middle" x="167.5" y="-408.88" font-family="Arial" font-size="10.00">(Gemeinsame Ziele:</text>
<text text-anchor="middle" x="167.5" y="-396.88" font-family="Arial" font-size="10.00">Umwelt, Handel, Menschenrechte)</text>
</g>
<!-- SOUV&#45;&gt;TRANS -->
<g id="edge1" class="edge">
<title>SOUV&#45;&gt;TRANS</title>
<path fill="none" stroke="black" d="M166.65,-515.07C166.75,-502.54 166.9,-484.86 167.04,-467.76"/>
<polygon fill="black" stroke="black" points="170.54,-468.2 167.12,-458.17 163.54,-468.14 170.54,-468.2"/>
</g>
<!-- KONS -->
<g id="node2" class="node">
<title>KONS</title>
<path fill="#eceff1" stroke="black" d="M447,-551.38C447,-551.38 326,-551.38 326,-551.38 320,-551.38 314,-545.38 314,-539.38 314,-539.38 314,-527.38 314,-527.38 314,-521.38 320,-515.38 326,-515.38 326,-515.38 447,-515.38 447,-515.38 453,-515.38 459,-521.38 459,-527.38 459,-527.38 459,-539.38 459,-539.38 459,-545.38 453,-551.38 447,-551.38"/>
<text text-anchor="middle" x="386.5" y="-536.43" font-family="Arial" font-size="11.00">Konsensprinzip &amp;</text>
<text text-anchor="middle" x="386.5" y="-522.93" font-family="Arial" font-size="11.00">Friedliches Nebeneinander</text>
</g>
<!-- KONS&#45;&gt;TRANS -->
<g id="edge2" class="edge">
<title>KONS&#45;&gt;TRANS</title>
<path fill="none" stroke="black" d="M354.66,-515.07C322.5,-497.6 271.95,-470.13 231.48,-448.14"/>
<polygon fill="black" stroke="black" points="233.21,-445.1 222.76,-443.4 229.87,-451.25 233.21,-445.1"/>
</g>
<!-- SUPRA -->
<g id="node4" class="node">
<title>SUPRA</title>
<path fill="#c8e6c9" stroke="black" d="M183,-281.63C183,-281.63 110,-281.63 110,-281.63 104,-281.63 98,-275.63 98,-269.63 98,-269.63 98,-257.63 98,-257.63 98,-251.63 104,-245.63 110,-245.63 110,-245.63 183,-245.63 183,-245.63 189,-245.63 195,-251.63 195,-257.63 195,-257.63 195,-269.63 195,-269.63 195,-275.63 189,-281.63 183,-281.63"/>
<text text-anchor="middle" x="146.5" y="-266.68" font-family="Arial" font-size="11.00">Supranationalität</text>
<text text-anchor="middle" x="146.5" y="-253.18" font-family="Arial" font-size="11.00">(z.B. EU, WTO)</text>
</g>
<!-- TRANS&#45;&gt;SUPRA -->
<g id="edge3" class="edge">
<title>TRANS&#45;&gt;SUPRA</title>
<path fill="none" stroke="black" d="M154.24,-371.42C151.38,-361.09 148.76,-349.92 147.25,-339.38 145.09,-324.27 144.75,-307.28 145.03,-293.31"/>
<polygon fill="black" stroke="black" points="148.52,-293.57 145.34,-283.46 141.52,-293.34 148.52,-293.57"/>
<text text-anchor="middle" x="200.88" y="-326.08" font-family="Times New Roman,serif" font-size="14.00">Hoheitsübertragung</text>
</g>
<!-- KONST -->
<g id="node5" class="node">
<title>KONST</title>
<path fill="#c8e6c9" stroke="black" d="M425.75,-281.63C425.75,-281.63 279.25,-281.63 279.25,-281.63 273.25,-281.63 267.25,-275.63 267.25,-269.63 267.25,-269.63 267.25,-257.63 267.25,-257.63 267.25,-251.63 273.25,-245.63 279.25,-245.63 279.25,-245.63 425.75,-245.63 425.75,-245.63 431.75,-245.63 437.75,-251.63 437.75,-257.63 437.75,-257.63 437.75,-269.63 437.75,-269.63 437.75,-275.63 431.75,-281.63 425.75,-281.63"/>
<text text-anchor="middle" x="352.5" y="-266.68" font-family="Arial" font-size="11.00">Globale Konstitutionalisierung</text>
<text text-anchor="middle" x="352.5" y="-253.18" font-family="Arial" font-size="11.00">(UN&#45;Charta als Weltverfassung)</text>
</g>
<!-- TRANS&#45;&gt;KONST -->
<g id="edge4" class="edge">
<title>TRANS&#45;&gt;KONST</title>
<path fill="none" stroke="black" d="M213.52,-380.14C231.04,-367.84 250.99,-353.34 268.5,-339.38 288.33,-323.56 309.67,-304.54 325.88,-289.65"/>
<polygon fill="black" stroke="black" points="328.24,-292.23 333.2,-282.87 323.49,-287.1 328.24,-292.23"/>
<text text-anchor="middle" x="337.75" y="-326.08" font-family="Times New Roman,serif" font-size="14.00">Legitimitätsbedarf</text>
</g>
<!-- FRAG -->
<g id="node6" class="node">
<title>FRAG</title>
<polygon fill="#dcedc8" stroke="black" stroke-dasharray="5,2" points="225.38,-186.63 97.62,-186.63 97.62,-150.63 225.38,-150.63 225.38,-186.63"/>
<text text-anchor="middle" x="161.5" y="-171.68" font-family="Arial" font-size="11.00">Fragmentierung</text>
<text text-anchor="middle" x="161.5" y="-158.18" font-family="Arial" font-size="11.00">(Spezialisierte Regime)</text>
</g>
<!-- SUPRA&#45;&gt;FRAG -->
<g id="edge5" class="edge">
<title>SUPRA&#45;&gt;FRAG</title>
<path fill="none" stroke="black" stroke-dasharray="1,5" d="M149.32,-245.14C151.46,-231.89 154.44,-213.41 156.92,-198.04"/>
<polygon fill="black" stroke="black" points="160.31,-198.97 158.45,-188.54 153.4,-197.85 160.31,-198.97"/>
</g>
<!-- JUD -->
<g id="node8" class="node">
<title>JUD</title>
<path fill="#b3e5fc" stroke="black" d="M577.5,-186.63C577.5,-186.63 465.5,-186.63 465.5,-186.63 459.5,-186.63 453.5,-180.63 453.5,-174.63 453.5,-174.63 453.5,-162.63 453.5,-162.63 453.5,-156.63 459.5,-150.63 465.5,-150.63 465.5,-150.63 577.5,-150.63 577.5,-150.63 583.5,-150.63 589.5,-156.63 589.5,-162.63 589.5,-162.63 589.5,-174.63 589.5,-174.63 589.5,-180.63 583.5,-186.63 577.5,-186.63"/>
<text text-anchor="middle" x="521.5" y="-171.68" font-family="Arial" font-size="11.00">Gerichtliche Kontrolle &amp;</text>
<text text-anchor="middle" x="521.5" y="-158.18" font-family="Arial" font-size="11.00">Internationale Einhegung</text>
</g>
<!-- KONST&#45;&gt;JUD -->
<g id="edge8" class="edge">
<title>KONST&#45;&gt;JUD</title>
<path fill="none" stroke="black" d="M364.44,-245.47C372.07,-235.59 382.71,-223.6 394.5,-215.63 409.38,-205.57 426.73,-197.41 443.73,-190.91"/>
<polygon fill="black" stroke="black" points="444.63,-194.31 452.83,-187.6 442.23,-187.74 444.63,-194.31"/>
</g>
<!-- MACHT -->
<g id="node7" class="node">
<title>MACHT</title>
<path fill="#ffccbc" stroke="black" d="M636.9,-39.17C636.9,-39.17 627.07,-52.22 627.07,-52.22 623.45,-57.01 613.9,-62.66 607.97,-63.53 607.97,-63.53 533.37,-74.4 533.37,-74.4 527.44,-75.26 515.56,-75.26 509.63,-74.4 509.63,-74.4 435.03,-63.53 435.03,-63.53 429.1,-62.66 419.55,-57.01 415.93,-52.22 415.93,-52.22 406.1,-39.17 406.1,-39.17 402.48,-34.38 404.48,-27.47 410.09,-25.34 410.09,-25.34 455.71,-8.03 455.71,-8.03 461.32,-5.9 472.92,-3.77 478.92,-3.77 478.92,-3.77 564.08,-3.77 564.08,-3.77 570.08,-3.77 581.68,-5.9 587.29,-8.03 587.29,-8.03 632.91,-25.34 632.91,-25.34 638.52,-27.47 640.52,-34.38 636.9,-39.17"/>
<text text-anchor="middle" x="521.5" y="-47.86" font-family="Arial" font-size="11.00">PERSISTENZ DER MACHT</text>
<text text-anchor="middle" x="521.5" y="-34.36" font-family="Arial" font-size="11.00">(Veto&#45;Recht, Asymmetrie,</text>
<text text-anchor="middle" x="521.5" y="-20.86" font-family="Arial" font-size="11.00">Hegemoniale Verzerrung)</text>
</g>
<!-- MACHT&#45;&gt;SOUV -->
<g id="edge6" class="edge">
<title>MACHT:w&#45;&gt;SOUV:w</title>
<path fill="none" stroke="#bf360c" stroke-dasharray="5,2" d="M403.94,-38.06C387.02,-38.06 393.36,-63.79 404.94,-76.13 454.51,-128.91 660.53,-83.07 729.5,-105.13 760.9,-115.17 777.11,-114.02 793.5,-142.63 803.22,-159.6 802.89,-169.48 793.5,-186.63 686.58,-381.87 577.55,-372.15 371.5,-456.38 364.13,-459.39 96.19,-509.34 91,-515.38 89.29,-517.37 87.73,-520 86.69,-522.62"/>
<polygon fill="#bf360c" stroke="#bf360c" points="83.27,-523.4 89.55,-531.93 89.96,-521.34 83.27,-523.4"/>
<text text-anchor="middle" x="784.12" y="-258.58" font-family="Times New Roman,serif" font-size="14.00"> Ursprung</text>
</g>
<!-- MACHT&#45;&gt;KONST -->
<g id="edge7" class="edge">
<title>MACHT:e&#45;&gt;KONST:e</title>
<path fill="none" stroke="#bf360c" d="M639.06,-38.06C705.36,-38.06 679.94,-148.78 625.5,-186.63 576.54,-220.67 547.82,-188.92 494.5,-215.63 469.15,-228.33 470.43,-255.1 449.89,-261.99"/>
<polygon fill="#bf360c" stroke="#bf360c" points="449.63,-258.49 440.25,-263.41 450.65,-265.41 449.63,-258.49"/>
<text text-anchor="middle" x="718.67" y="-171.83" font-family="Times New Roman,serif" font-size="14.00"> Verzerrung des</text>
<text text-anchor="middle" x="718.67" y="-155.33" font-family="Times New Roman,serif" font-size="14.00">egalitären Anspruchs</text>
</g>
<!-- JUD&#45;&gt;MACHT -->
<g id="edge9" class="edge">
<title>JUD&#45;&gt;MACHT</title>
<path fill="none" stroke="#0277bd" stroke-width="2" d="M521.5,-150.29C521.5,-134.24 521.5,-109.6 521.5,-87.59"/>
<polygon fill="#0277bd" stroke="#0277bd" stroke-width="2" points="525,-89.41 521.5,-79.41 518,-89.41 525,-89.41"/>
<text text-anchor="middle" x="585.25" y="-108.33" font-family="Times New Roman,serif" font-size="14.00">Versuch der Bändigung</text>
</g>
</g>
</svg>
