<?xml version="1.0" encoding="UTF-8" standalone="no"?>
<!DOCTYPE svg PUBLIC "-//W3C//DTD SVG 1.1//EN"
 "http://www.w3.org/Graphics/SVG/1.1/DTD/svg11.dtd">
<!-- Generated by graphviz version 12.2.1 (20241206.2353)
 -->
<!-- Title: Ius_ad_Bellum Pages: 1 -->
<svg width="864pt" height="383pt"
 viewBox="0.00 0.00 864.00 382.63" xmlns="http://www.w3.org/2000/svg" xmlns:xlink="http://www.w3.org/1999/xlink">
<g id="graph0" class="graph" transform="scale(0.863137 0.863137) rotate(0) translate(4 439.3)">
<title>Ius_ad_Bellum</title>
<polygon fill="white" stroke="none" points="-4,4 -4,-439.3 997,-439.3 997,4 -4,4"/>
<g id="clust1" class="cluster">
<title>cluster_self_defense</title>
<polygon fill="none" stroke="#2e7d32" stroke-dasharray="5,2" points="8,-103 8,-314.75 296,-314.75 296,-103 8,-103"/>
<text text-anchor="middle" x="152" y="-297.45" font-family="Arial-Bold" font-size="14.00">Selbstverteidigung (Art. 51)</text>
</g>
<g id="clust2" class="cluster">
<title>cluster_security_council</title>
<polygon fill="none" stroke="#1565c0" stroke-dasharray="5,2" points="307,-8 307,-314.75 473,-314.75 473,-8 307,-8"/>
<text text-anchor="middle" x="390" y="-297.45" font-family="Arial-Bold" font-size="14.00">Kollektive Sicherheit</text>
</g>
<g id="clust3" class="cluster">
<title>cluster_other</title>
<polygon fill="none" stroke="#546e7a" stroke-dasharray="1,5" points="481,-233.5 481,-318 983,-318 983,-233.5 481,-233.5"/>
<text text-anchor="middle" x="732" y="-300.7" font-family="Times New Roman,serif" font-size="14.00">Andere Gründe / Kontroversen</text>
</g>
<!-- VERBOT -->
<g id="node1" class="node">
<title>VERBOT</title>
<path fill="#ffebee" stroke="#b71c1c" stroke-width="3" d="M599.12,-411.75C599.12,-411.75 478.88,-411.75 478.88,-411.75 472.88,-411.75 466.88,-405.75 466.88,-399.75 466.88,-399.75 466.88,-387.25 466.88,-387.25 466.88,-381.25 472.88,-375.25 478.88,-375.25 478.88,-375.25 599.12,-375.25 599.12,-375.25 605.12,-375.25 611.12,-381.25 611.12,-387.25 611.12,-387.25 611.12,-399.75 611.12,-399.75 611.12,-405.75 605.12,-411.75 599.12,-411.75"/>
<text text-anchor="middle" x="539" y="-396.35" font-family="Arial" font-size="12.00">GEWALTVERBOT</text>
<text text-anchor="middle" x="539" y="-382.1" font-family="Arial" font-size="12.00">(Art. 2 Ziff. 4 UN&#45;Charta)</text>
</g>
<!-- IND -->
<g id="node2" class="node">
<title>IND</title>
<path fill="#c8e6c9" stroke="black" d="M100.12,-281.5C100.12,-281.5 27.88,-281.5 27.88,-281.5 21.88,-281.5 15.88,-275.5 15.88,-269.5 15.88,-269.5 15.88,-257.5 15.88,-257.5 15.88,-251.5 21.88,-245.5 27.88,-245.5 27.88,-245.5 100.12,-245.5 100.12,-245.5 106.12,-245.5 112.12,-251.5 112.12,-257.5 112.12,-257.5 112.12,-269.5 112.12,-269.5 112.12,-275.5 106.12,-281.5 100.12,-281.5"/>
<text text-anchor="middle" x="64" y="-266" font-family="Arial" font-size="10.00">Individuelle</text>
<text text-anchor="middle" x="64" y="-254" font-family="Arial" font-size="10.00">Selbstverteidigung</text>
</g>
<!-- VERBOT&#45;&gt;IND -->
<g id="edge1" class="edge">
<title>VERBOT&#45;&gt;IND</title>
<path fill="none" stroke="black" d="M465.41,-389.84C381.14,-384.4 240.6,-367.9 131,-318 115.78,-311.07 101.01,-299.92 89.23,-289.58"/>
<polygon fill="black" stroke="black" points="91.71,-287.11 81.97,-282.95 86.99,-292.27 91.71,-287.11"/>
<text text-anchor="middle" x="229.99" y="-329.2" font-family="Times New Roman,serif" font-size="14.00"> Ausnahme 1</text>
</g>
<!-- SC -->
<g id="node6" class="node">
<title>SC</title>
<path fill="#bbdefb" stroke="black" d="M433,-281.5C433,-281.5 363,-281.5 363,-281.5 357,-281.5 351,-275.5 351,-269.5 351,-269.5 351,-257.5 351,-257.5 351,-251.5 357,-245.5 363,-245.5 363,-245.5 433,-245.5 433,-245.5 439,-245.5 445,-251.5 445,-257.5 445,-257.5 445,-269.5 445,-269.5 445,-275.5 439,-281.5 433,-281.5"/>
<text text-anchor="middle" x="398" y="-266" font-family="Arial" font-size="10.00">UN&#45;Sicherheitsrat</text>
<text text-anchor="middle" x="398" y="-254" font-family="Arial" font-size="10.00">(Kapitel VII)</text>
</g>
<!-- VERBOT&#45;&gt;SC -->
<g id="edge2" class="edge">
<title>VERBOT&#45;&gt;SC</title>
<path fill="none" stroke="black" d="M502.78,-373.91C488.04,-365.42 471.37,-354.57 458,-342.5 441.3,-327.43 425.9,-307.23 414.89,-291.16"/>
<polygon fill="black" stroke="black" points="417.93,-289.41 409.47,-283.03 412.11,-293.29 417.93,-289.41"/>
<text text-anchor="middle" x="494" y="-329.2" font-family="Times New Roman,serif" font-size="14.00"> Ausnahme 2</text>
</g>
<!-- CONSENT -->
<g id="node9" class="node">
<title>CONSENT</title>
<path fill="#f5f5f5" stroke="black" d="M577.38,-281.5C577.38,-281.5 500.62,-281.5 500.62,-281.5 494.62,-281.5 488.62,-275.5 488.62,-269.5 488.62,-269.5 488.62,-257.5 488.62,-257.5 488.62,-251.5 494.62,-245.5 500.62,-245.5 500.62,-245.5 577.38,-245.5 577.38,-245.5 583.38,-245.5 589.38,-251.5 589.38,-257.5 589.38,-257.5 589.38,-269.5 589.38,-269.5 589.38,-275.5 583.38,-281.5 577.38,-281.5"/>
<text text-anchor="middle" x="539" y="-266" font-family="Arial" font-size="10.00">Zustimmung des</text>
<text text-anchor="middle" x="539" y="-254" font-family="Arial" font-size="10.00">betroffenen Staates</text>
</g>
<!-- VERBOT&#45;&gt;CONSENT -->
<g id="edge3" class="edge">
<title>VERBOT&#45;&gt;CONSENT</title>
<path fill="none" stroke="black" d="M539,-373.89C539,-352.67 539,-317.76 539,-293.09"/>
<polygon fill="black" stroke="black" points="542.5,-293.42 539,-283.42 535.5,-293.42 542.5,-293.42"/>
<text text-anchor="middle" x="569" y="-329.2" font-family="Times New Roman,serif" font-size="14.00"> Anerkannt</text>
</g>
<!-- R2P -->
<g id="node10" class="node">
<title>R2P</title>
<path fill="#fff9c4" stroke="black" d="M764.88,-285.5C764.88,-285.5 637.12,-285.5 637.12,-285.5 631.12,-285.5 625.12,-279.5 625.12,-273.5 625.12,-273.5 625.12,-253.5 625.12,-253.5 625.12,-247.5 631.12,-241.5 637.12,-241.5 637.12,-241.5 764.88,-241.5 764.88,-241.5 770.88,-241.5 776.88,-247.5 776.88,-253.5 776.88,-253.5 776.88,-273.5 776.88,-273.5 776.88,-279.5 770.88,-285.5 764.88,-285.5"/>
<text text-anchor="middle" x="701" y="-272" font-family="Arial" font-size="10.00">Humanitäre Intervention /</text>
<text text-anchor="middle" x="701" y="-260" font-family="Arial" font-size="10.00">Responsibility to Protect (R2P)</text>
<text text-anchor="middle" x="701" y="-248" font-family="Arial" font-size="10.00">(Hochgradig umstritten)</text>
</g>
<!-- VERBOT&#45;&gt;R2P -->
<g id="edge9" class="edge">
<title>VERBOT&#45;&gt;R2P</title>
<path fill="none" stroke="#fbc02d" d="M565.54,-373.94C578.5,-364.7 594.24,-353.24 608,-342.5 628.23,-326.72 650.26,-308.3 667.8,-293.33"/>
<polygon fill="#fbc02d" stroke="#fbc02d" points="670.06,-295.99 675.38,-286.83 665.51,-290.68 670.06,-295.99"/>
<text text-anchor="middle" x="631.05" y="-329.2" font-family="Times New Roman,serif" font-size="14.00"> ?</text>
</g>
<!-- NAT -->
<g id="node11" class="node">
<title>NAT</title>
<path fill="#fff9c4" stroke="black" d="M963.12,-281.5C963.12,-281.5 824.88,-281.5 824.88,-281.5 818.88,-281.5 812.88,-275.5 812.88,-269.5 812.88,-269.5 812.88,-257.5 812.88,-257.5 812.88,-251.5 818.88,-245.5 824.88,-245.5 824.88,-245.5 963.12,-245.5 963.12,-245.5 969.12,-245.5 975.12,-251.5 975.12,-257.5 975.12,-257.5 975.12,-269.5 975.12,-269.5 975.12,-275.5 969.12,-281.5 963.12,-281.5"/>
<text text-anchor="middle" x="894" y="-266" font-family="Arial" font-size="10.00">Schutz eigener Staatsbürger</text>
<text text-anchor="middle" x="894" y="-254" font-family="Arial" font-size="10.00">(Gewohnheitsrechtlich umstritten)</text>
</g>
<!-- VERBOT&#45;&gt;NAT -->
<g id="edge10" class="edge">
<title>VERBOT&#45;&gt;NAT</title>
<path fill="none" stroke="#fbc02d" d="M612.4,-375.55C664.36,-362.5 735.15,-342.55 795,-318 815.8,-309.47 837.9,-297.8 855.93,-287.53"/>
<polygon fill="#fbc02d" stroke="#fbc02d" points="857.55,-290.64 864.45,-282.61 854.04,-284.58 857.55,-290.64"/>
<text text-anchor="middle" x="772.95" y="-329.2" font-family="Times New Roman,serif" font-size="14.00"> ?</text>
</g>
<!-- VORAUS -->
<g id="node4" class="node">
<title>VORAUS</title>
<polygon fill="#dcedc8" stroke="black" points="272.38,-167 165.62,-167 165.62,-111 278.38,-111 278.38,-161 272.38,-167"/>
<polyline fill="none" stroke="black" points="272.38,-167 272.38,-161"/>
<polyline fill="none" stroke="black" points="278.38,-161 272.38,-161"/>
<text text-anchor="middle" x="222" y="-153.5" font-family="Arial" font-size="10.00">Voraussetzungen:</text>
<text text-anchor="middle" x="222" y="-141.5" font-family="Arial" font-size="10.00">1. Bewaffneter Angriff</text>
<text text-anchor="middle" x="222" y="-129.5" font-family="Arial" font-size="10.00">2. Erforderlichkeit</text>
<text text-anchor="middle" x="222" y="-117.5" font-family="Arial" font-size="10.00">3. Verhältnismäßigkeit</text>
</g>
<!-- IND&#45;&gt;VORAUS -->
<g id="edge4" class="edge">
<title>IND&#45;&gt;VORAUS</title>
<path fill="none" stroke="black" stroke-dasharray="1,5" d="M88.84,-245.02C102.08,-235.56 118.57,-223.59 133,-212.5 148.85,-200.32 165.94,-186.55 180.87,-174.31"/>
<polygon fill="black" stroke="black" points="182.72,-177.32 188.22,-168.27 178.27,-171.92 182.72,-177.32"/>
</g>
<!-- PREV -->
<g id="node5" class="node">
<title>PREV</title>
<path fill="#f1f8e9" stroke="black" d="M117.75,-157C117.75,-157 28.25,-157 28.25,-157 22.25,-157 16.25,-151 16.25,-145 16.25,-145 16.25,-133 16.25,-133 16.25,-127 22.25,-121 28.25,-121 28.25,-121 117.75,-121 117.75,-121 123.75,-121 129.75,-127 129.75,-133 129.75,-133 129.75,-145 129.75,-145 129.75,-151 123.75,-157 117.75,-157"/>
<text text-anchor="middle" x="73" y="-141.5" font-family="Arial" font-size="10.00">Präventiv&#45;Verteidigung</text>
<text text-anchor="middle" x="73" y="-129.5" font-family="Arial" font-size="10.00">(Streng restriktiv)</text>
</g>
<!-- IND&#45;&gt;PREV -->
<g id="edge6" class="edge">
<title>IND&#45;&gt;PREV</title>
<path fill="none" stroke="black" d="M65.27,-245.21C66.73,-225.33 69.15,-192.39 70.89,-168.66"/>
<polygon fill="black" stroke="black" points="74.38,-168.94 71.63,-158.71 67.4,-168.43 74.38,-168.94"/>
<text text-anchor="middle" x="96.14" y="-199.2" font-family="Times New Roman,serif" font-size="14.00"> Grenzfall</text>
</g>
<!-- KOL -->
<g id="node3" class="node">
<title>KOL</title>
<path fill="#c8e6c9" stroke="black" d="M275.5,-281.5C275.5,-281.5 160.5,-281.5 160.5,-281.5 154.5,-281.5 148.5,-275.5 148.5,-269.5 148.5,-269.5 148.5,-257.5 148.5,-257.5 148.5,-251.5 154.5,-245.5 160.5,-245.5 160.5,-245.5 275.5,-245.5 275.5,-245.5 281.5,-245.5 287.5,-251.5 287.5,-257.5 287.5,-257.5 287.5,-269.5 287.5,-269.5 287.5,-275.5 281.5,-281.5 275.5,-281.5"/>
<text text-anchor="middle" x="218" y="-266" font-family="Arial" font-size="10.00">Kollektive</text>
<text text-anchor="middle" x="218" y="-254" font-family="Arial" font-size="10.00">Selbstverteidigung (Nothilfe)</text>
</g>
<!-- KOL&#45;&gt;VORAUS -->
<g id="edge5" class="edge">
<title>KOL&#45;&gt;VORAUS</title>
<path fill="none" stroke="black" stroke-dasharray="1,5" d="M218.56,-245.21C219.13,-227.91 220.02,-200.73 220.75,-178.32"/>
<polygon fill="black" stroke="black" points="224.24,-178.74 221.06,-168.64 217.24,-178.52 224.24,-178.74"/>
</g>
<!-- ART39 -->
<g id="node8" class="node">
<title>ART39</title>
<polygon fill="#e3f2fd" stroke="black" points="459.12,-161 314.88,-161 314.88,-117 465.12,-117 465.12,-155 459.12,-161"/>
<polyline fill="none" stroke="black" points="459.12,-161 459.12,-155"/>
<polyline fill="none" stroke="black" points="465.12,-155 459.12,-155"/>
<text text-anchor="middle" x="390" y="-147.5" font-family="Arial" font-size="10.00">Feststellung:</text>
<text text-anchor="middle" x="390" y="-135.5" font-family="Arial" font-size="10.00">Bruch/Bedrohung des Friedens</text>
<text text-anchor="middle" x="390" y="-123.5" font-family="Arial" font-size="10.00">(Art. 39)</text>
</g>
<!-- SC&#45;&gt;ART39 -->
<g id="edge7" class="edge">
<title>SC&#45;&gt;ART39</title>
<path fill="none" stroke="black" d="M396.87,-245.21C395.65,-226.45 393.66,-196.07 392.14,-172.76"/>
<polygon fill="black" stroke="black" points="395.64,-172.58 391.49,-162.83 388.65,-173.04 395.64,-172.58"/>
</g>
<!-- ART42 -->
<g id="node7" class="node">
<title>ART42</title>
<path fill="#bbdefb" stroke="black" d="M436.62,-52C436.62,-52 343.38,-52 343.38,-52 337.38,-52 331.38,-46 331.38,-40 331.38,-40 331.38,-28 331.38,-28 331.38,-22 337.38,-16 343.38,-16 343.38,-16 436.62,-16 436.62,-16 442.62,-16 448.62,-22 448.62,-28 448.62,-28 448.62,-40 448.62,-40 448.62,-46 442.62,-52 436.62,-52"/>
<text text-anchor="middle" x="390" y="-36.5" font-family="Arial" font-size="10.00">Militärische Sanktionen</text>
<text text-anchor="middle" x="390" y="-24.5" font-family="Arial" font-size="10.00">(Art. 42)</text>
</g>
<!-- ART39&#45;&gt;ART42 -->
<g id="edge8" class="edge">
<title>ART39&#45;&gt;ART42</title>
<path fill="none" stroke="black" d="M390,-116.66C390,-101.3 390,-80.4 390,-63.6"/>
<polygon fill="black" stroke="black" points="393.5,-63.74 390,-53.74 386.5,-63.74 393.5,-63.74"/>
</g>
<!-- HIST -->
<g id="node12" class="node">
<title>HIST</title>
<path fill="#eeeeee" stroke="black" d="M815.12,-415.5C815.12,-415.5 748.88,-415.5 748.88,-415.5 742.88,-415.5 736.88,-409.5 736.88,-403.5 736.88,-403.5 736.88,-383.5 736.88,-383.5 736.88,-377.5 742.88,-371.5 748.88,-371.5 748.88,-371.5 815.12,-371.5 815.12,-371.5 821.12,-371.5 827.12,-377.5 827.12,-383.5 827.12,-383.5 827.12,-403.5 827.12,-403.5 827.12,-409.5 821.12,-415.5 815.12,-415.5"/>
<text text-anchor="middle" x="782" y="-402" font-family="Arial" font-size="10.00" fill="#757575">Historisch:</text>
<text text-anchor="middle" x="782" y="-390" font-family="Arial" font-size="10.00" fill="#757575">Bellum Iustum</text>
<text text-anchor="middle" x="782" y="-378" font-family="Arial" font-size="10.00" fill="#757575">(Gerechter Krieg)</text>
</g>
<!-- HIST&#45;&gt;VERBOT -->
<g id="edge11" class="edge">
<title>HIST&#45;&gt;VERBOT</title>
<path fill="none" stroke="#9e9e9e" stroke-dasharray="5,2" d="M736.55,-393.5C704.85,-393.5 661.59,-393.5 623.64,-393.5"/>
<polygon fill="#9e9e9e" stroke="#9e9e9e" points="624.08,-390 614.08,-393.5 624.08,-397 624.08,-390"/>
<text text-anchor="middle" x="674" y="-416.2" font-family="Times New Roman,serif" font-size="14.00"> Ablösung durch</text>
<text text-anchor="middle" x="674" y="-399.7" font-family="Times New Roman,serif" font-size="14.00">positives Recht</text>
</g>
<!-- REPR -->
<g id="node13" class="node">
<title>REPR</title>
<path fill="#f5f5f5" stroke="black" d="M981,-411.5C981,-411.5 875,-411.5 875,-411.5 869,-411.5 863,-405.5 863,-399.5 863,-399.5 863,-387.5 863,-387.5 863,-381.5 869,-375.5 875,-375.5 875,-375.5 981,-375.5 981,-375.5 987,-375.5 993,-381.5 993,-387.5 993,-387.5 993,-399.5 993,-399.5 993,-405.5 987,-411.5 981,-411.5"/>
<text text-anchor="middle" x="928" y="-396" font-family="Arial" font-size="10.00">Kriegerische Repressalien</text>
<text text-anchor="middle" x="928" y="-384" font-family="Arial" font-size="10.00">(Strengste Anforderungen)</text>
</g>
<!-- REPR&#45;&gt;VERBOT -->
<g id="edge12" class="edge">
<title>REPR&#45;&gt;VERBOT</title>
<path fill="none" stroke="black" stroke-dasharray="1,5" d="M887.12,-411.93C869.08,-419.09 847.39,-426.43 827,-430 756.11,-442.42 674.7,-429.62 616.56,-415.88"/>
<polygon fill="black" stroke="black" points="617.63,-412.54 607.08,-413.58 615.97,-419.34 617.63,-412.54"/>
</g>
</g>
</svg>
